<mxfile host="app.diagrams.net" modified="2023-05-24T11:19:14.291Z" agent="Mozilla/5.0 (Windows NT 10.0; Win64; x64) AppleWebKit/537.36 (KHTML, like Gecko) Chrome/113.0.0.0 Safari/537.36" etag="nwTAdxtgKpIPirx8Kg-w" version="21.3.3" type="google">
  <diagram id="prtHgNgQTEPvFCAcTncT" name="Page-1">
    <mxGraphModel grid="1" page="1" gridSize="10" guides="1" tooltips="1" connect="1" arrows="1" fold="1" pageScale="1" pageWidth="827" pageHeight="1169" math="1" shadow="0">
      <root>
        <mxCell id="0" />
        <mxCell id="1" parent="0" />
        <mxCell id="dNxyNK7c78bLwvsdeMH5-19" value="Администратор и система управление аккаунтом &lt;br&gt;студента/преподавателя" style="swimlane;html=1;childLayout=stackLayout;resizeParent=1;resizeParentMax=0;horizontal=0;startSize=30;horizontalStack=0;labelBackgroundColor=none;" vertex="1" parent="1">
          <mxGeometry x="100" y="40" width="1720" height="370" as="geometry" />
        </mxCell>
        <mxCell id="dNxyNK7c78bLwvsdeMH5-20" value="Администратор" style="swimlane;html=1;startSize=20;horizontal=0;labelBackgroundColor=none;" vertex="1" parent="dNxyNK7c78bLwvsdeMH5-19">
          <mxGeometry x="30" width="1690" height="180" as="geometry" />
        </mxCell>
        <mxCell id="e0l2LWseTlkpB5ixs0CN-57" value="" style="ellipse;html=1;labelBackgroundColor=none;" vertex="1" parent="dNxyNK7c78bLwvsdeMH5-20">
          <mxGeometry x="20" y="55" width="30" height="30" as="geometry" />
        </mxCell>
        <mxCell id="e0l2LWseTlkpB5ixs0CN-58" value="Открывает приложение&amp;nbsp;" style="rounded=1;whiteSpace=wrap;html=1;labelBackgroundColor=none;" vertex="1" parent="dNxyNK7c78bLwvsdeMH5-20">
          <mxGeometry x="70" y="40" width="120" height="60" as="geometry" />
        </mxCell>
        <mxCell id="e0l2LWseTlkpB5ixs0CN-56" style="edgeStyle=orthogonalEdgeStyle;rounded=0;orthogonalLoop=1;jettySize=auto;html=1;labelBackgroundColor=none;fontColor=default;" edge="1" parent="dNxyNK7c78bLwvsdeMH5-20" source="e0l2LWseTlkpB5ixs0CN-57" target="e0l2LWseTlkpB5ixs0CN-58">
          <mxGeometry relative="1" as="geometry" />
        </mxCell>
        <mxCell id="e0l2LWseTlkpB5ixs0CN-59" value="Выбирает функцию &quot;управление аккаунтом пользователя&quot;" style="rounded=1;whiteSpace=wrap;html=1;labelBackgroundColor=none;" vertex="1" parent="dNxyNK7c78bLwvsdeMH5-20">
          <mxGeometry x="220" y="40" width="120" height="60" as="geometry" />
        </mxCell>
        <mxCell id="e0l2LWseTlkpB5ixs0CN-72" value="Выбирает тип аккаунта&lt;br&gt;преподаватель/студент" style="rounded=1;whiteSpace=wrap;html=1;labelBackgroundColor=none;" vertex="1" parent="dNxyNK7c78bLwvsdeMH5-20">
          <mxGeometry x="460" y="40" width="120" height="60" as="geometry" />
        </mxCell>
        <mxCell id="e0l2LWseTlkpB5ixs0CN-78" value="Выбирает добавление&amp;nbsp;" style="rounded=1;whiteSpace=wrap;html=1;labelBackgroundColor=none;" vertex="1" parent="dNxyNK7c78bLwvsdeMH5-20">
          <mxGeometry x="670" y="55" width="120" height="60" as="geometry" />
        </mxCell>
        <mxCell id="e0l2LWseTlkpB5ixs0CN-83" value="Заполняет данные&amp;nbsp;" style="rounded=1;whiteSpace=wrap;html=1;labelBackgroundColor=none;" vertex="1" parent="dNxyNK7c78bLwvsdeMH5-20">
          <mxGeometry x="850" y="60" width="120" height="60" as="geometry" />
        </mxCell>
        <mxCell id="e0l2LWseTlkpB5ixs0CN-87" value="Выбирает аккаунт&amp;nbsp;&amp;nbsp;" style="rounded=1;whiteSpace=wrap;html=1;labelBackgroundColor=none;" vertex="1" parent="dNxyNK7c78bLwvsdeMH5-20">
          <mxGeometry x="1070" y="50" width="120" height="60" as="geometry" />
        </mxCell>
        <mxCell id="e0l2LWseTlkpB5ixs0CN-93" value="Редактирует данные&amp;nbsp;" style="rounded=1;whiteSpace=wrap;html=1;labelBackgroundColor=none;" vertex="1" parent="dNxyNK7c78bLwvsdeMH5-20">
          <mxGeometry x="1260" y="50" width="120" height="60" as="geometry" />
        </mxCell>
        <mxCell id="e0l2LWseTlkpB5ixs0CN-95" value="Удаляет аккаунт&amp;nbsp;" style="rounded=1;whiteSpace=wrap;html=1;labelBackgroundColor=none;" vertex="1" parent="dNxyNK7c78bLwvsdeMH5-20">
          <mxGeometry x="1390" y="50" width="120" height="60" as="geometry" />
        </mxCell>
        <mxCell id="dNxyNK7c78bLwvsdeMH5-21" value="Система" style="swimlane;html=1;startSize=20;horizontal=0;labelBackgroundColor=none;" vertex="1" parent="dNxyNK7c78bLwvsdeMH5-19">
          <mxGeometry x="30" y="180" width="1690" height="190" as="geometry" />
        </mxCell>
        <mxCell id="e0l2LWseTlkpB5ixs0CN-63" value="Распознает аккаунт администратора" style="rounded=1;whiteSpace=wrap;html=1;labelBackgroundColor=none;" vertex="1" parent="dNxyNK7c78bLwvsdeMH5-21">
          <mxGeometry x="60" y="80" width="120" height="60" as="geometry" />
        </mxCell>
        <mxCell id="e0l2LWseTlkpB5ixs0CN-64" value="Открывает функционал, доступный пользователю" style="rounded=1;whiteSpace=wrap;html=1;labelBackgroundColor=none;" vertex="1" parent="dNxyNK7c78bLwvsdeMH5-21">
          <mxGeometry x="240" y="80" width="120" height="60" as="geometry" />
        </mxCell>
        <mxCell id="e0l2LWseTlkpB5ixs0CN-62" style="edgeStyle=orthogonalEdgeStyle;rounded=0;orthogonalLoop=1;jettySize=auto;html=1;labelBackgroundColor=none;fontColor=default;" edge="1" parent="dNxyNK7c78bLwvsdeMH5-21" source="e0l2LWseTlkpB5ixs0CN-63" target="e0l2LWseTlkpB5ixs0CN-64">
          <mxGeometry relative="1" as="geometry" />
        </mxCell>
        <mxCell id="e0l2LWseTlkpB5ixs0CN-70" value="Открывает список пользователей" style="rounded=1;whiteSpace=wrap;html=1;labelBackgroundColor=none;" vertex="1" parent="dNxyNK7c78bLwvsdeMH5-21">
          <mxGeometry x="370" y="80" width="120" height="60" as="geometry" />
        </mxCell>
        <mxCell id="e0l2LWseTlkpB5ixs0CN-76" value="Прелагает список аккаунтов или добавление нового" style="rounded=1;whiteSpace=wrap;html=1;labelBackgroundColor=none;" vertex="1" parent="dNxyNK7c78bLwvsdeMH5-21">
          <mxGeometry x="560" y="80" width="120" height="60" as="geometry" />
        </mxCell>
        <mxCell id="e0l2LWseTlkpB5ixs0CN-80" value="Открывает форму заполнения данных аккаунта" style="rounded=1;whiteSpace=wrap;html=1;labelBackgroundColor=none;" vertex="1" parent="dNxyNK7c78bLwvsdeMH5-21">
          <mxGeometry x="770" y="80" width="120" height="60" as="geometry" />
        </mxCell>
        <mxCell id="e0l2LWseTlkpB5ixs0CN-90" style="edgeStyle=orthogonalEdgeStyle;rounded=0;orthogonalLoop=1;jettySize=auto;html=1;" edge="1" parent="dNxyNK7c78bLwvsdeMH5-21" source="e0l2LWseTlkpB5ixs0CN-85" target="e0l2LWseTlkpB5ixs0CN-89">
          <mxGeometry relative="1" as="geometry" />
        </mxCell>
        <mxCell id="e0l2LWseTlkpB5ixs0CN-85" value="Добавляет аккаунт в базу" style="rounded=1;whiteSpace=wrap;html=1;labelBackgroundColor=none;" vertex="1" parent="dNxyNK7c78bLwvsdeMH5-21">
          <mxGeometry x="940" y="80" width="120" height="60" as="geometry" />
        </mxCell>
        <mxCell id="e0l2LWseTlkpB5ixs0CN-89" value="" style="ellipse;html=1;shape=endState;fillColor=strokeColor;" vertex="1" parent="dNxyNK7c78bLwvsdeMH5-21">
          <mxGeometry x="1096" y="95" width="30" height="30" as="geometry" />
        </mxCell>
        <mxCell id="e0l2LWseTlkpB5ixs0CN-91" value="Открывает заполненую форму по аккаунту" style="rounded=1;whiteSpace=wrap;html=1;labelBackgroundColor=none;" vertex="1" parent="dNxyNK7c78bLwvsdeMH5-21">
          <mxGeometry x="1180" y="80" width="120" height="60" as="geometry" />
        </mxCell>
        <mxCell id="e0l2LWseTlkpB5ixs0CN-102" style="edgeStyle=orthogonalEdgeStyle;rounded=0;orthogonalLoop=1;jettySize=auto;html=1;" edge="1" parent="dNxyNK7c78bLwvsdeMH5-21" source="e0l2LWseTlkpB5ixs0CN-97" target="e0l2LWseTlkpB5ixs0CN-100">
          <mxGeometry relative="1" as="geometry" />
        </mxCell>
        <mxCell id="e0l2LWseTlkpB5ixs0CN-97" value="Сохраняет изменения в базе" style="rounded=1;whiteSpace=wrap;html=1;labelBackgroundColor=none;" vertex="1" parent="dNxyNK7c78bLwvsdeMH5-21">
          <mxGeometry x="1490" y="70" width="120" height="60" as="geometry" />
        </mxCell>
        <mxCell id="e0l2LWseTlkpB5ixs0CN-100" value="" style="ellipse;html=1;shape=endState;fillColor=strokeColor;" vertex="1" parent="dNxyNK7c78bLwvsdeMH5-21">
          <mxGeometry x="1640" y="85" width="30" height="30" as="geometry" />
        </mxCell>
        <mxCell id="e0l2LWseTlkpB5ixs0CN-60" style="edgeStyle=orthogonalEdgeStyle;rounded=0;orthogonalLoop=1;jettySize=auto;html=1;labelBackgroundColor=none;fontColor=default;" edge="1" parent="dNxyNK7c78bLwvsdeMH5-19" source="e0l2LWseTlkpB5ixs0CN-58" target="e0l2LWseTlkpB5ixs0CN-63">
          <mxGeometry relative="1" as="geometry">
            <Array as="points">
              <mxPoint x="150" y="140" />
              <mxPoint x="150" y="140" />
            </Array>
          </mxGeometry>
        </mxCell>
        <mxCell id="e0l2LWseTlkpB5ixs0CN-61" style="edgeStyle=orthogonalEdgeStyle;rounded=0;orthogonalLoop=1;jettySize=auto;html=1;labelBackgroundColor=none;fontColor=default;" edge="1" parent="dNxyNK7c78bLwvsdeMH5-19" source="e0l2LWseTlkpB5ixs0CN-64" target="e0l2LWseTlkpB5ixs0CN-59">
          <mxGeometry relative="1" as="geometry">
            <Array as="points">
              <mxPoint x="320" y="210" />
              <mxPoint x="320" y="210" />
            </Array>
          </mxGeometry>
        </mxCell>
        <mxCell id="e0l2LWseTlkpB5ixs0CN-71" style="edgeStyle=orthogonalEdgeStyle;rounded=0;orthogonalLoop=1;jettySize=auto;html=1;" edge="1" parent="dNxyNK7c78bLwvsdeMH5-19" source="e0l2LWseTlkpB5ixs0CN-59" target="e0l2LWseTlkpB5ixs0CN-70">
          <mxGeometry relative="1" as="geometry" />
        </mxCell>
        <mxCell id="e0l2LWseTlkpB5ixs0CN-73" style="edgeStyle=orthogonalEdgeStyle;rounded=0;orthogonalLoop=1;jettySize=auto;html=1;" edge="1" parent="dNxyNK7c78bLwvsdeMH5-19" source="e0l2LWseTlkpB5ixs0CN-70" target="e0l2LWseTlkpB5ixs0CN-72">
          <mxGeometry relative="1" as="geometry">
            <mxPoint x="600" y="90" as="targetPoint" />
            <Array as="points">
              <mxPoint x="550" y="280" />
            </Array>
          </mxGeometry>
        </mxCell>
        <mxCell id="e0l2LWseTlkpB5ixs0CN-77" style="edgeStyle=orthogonalEdgeStyle;rounded=0;orthogonalLoop=1;jettySize=auto;html=1;" edge="1" parent="dNxyNK7c78bLwvsdeMH5-19" source="e0l2LWseTlkpB5ixs0CN-72" target="e0l2LWseTlkpB5ixs0CN-76">
          <mxGeometry relative="1" as="geometry">
            <Array as="points">
              <mxPoint x="640" y="70" />
              <mxPoint x="640" y="290" />
            </Array>
          </mxGeometry>
        </mxCell>
        <mxCell id="e0l2LWseTlkpB5ixs0CN-79" style="edgeStyle=orthogonalEdgeStyle;rounded=0;orthogonalLoop=1;jettySize=auto;html=1;" edge="1" parent="dNxyNK7c78bLwvsdeMH5-19" source="e0l2LWseTlkpB5ixs0CN-76" target="e0l2LWseTlkpB5ixs0CN-78">
          <mxGeometry relative="1" as="geometry">
            <Array as="points">
              <mxPoint x="760" y="290" />
            </Array>
          </mxGeometry>
        </mxCell>
        <mxCell id="e0l2LWseTlkpB5ixs0CN-81" style="edgeStyle=orthogonalEdgeStyle;rounded=0;orthogonalLoop=1;jettySize=auto;html=1;" edge="1" parent="dNxyNK7c78bLwvsdeMH5-19" source="e0l2LWseTlkpB5ixs0CN-78" target="e0l2LWseTlkpB5ixs0CN-80">
          <mxGeometry relative="1" as="geometry">
            <Array as="points">
              <mxPoint x="850" y="70" />
            </Array>
          </mxGeometry>
        </mxCell>
        <mxCell id="e0l2LWseTlkpB5ixs0CN-84" style="edgeStyle=orthogonalEdgeStyle;rounded=0;orthogonalLoop=1;jettySize=auto;html=1;" edge="1" parent="dNxyNK7c78bLwvsdeMH5-19" source="e0l2LWseTlkpB5ixs0CN-80" target="e0l2LWseTlkpB5ixs0CN-83">
          <mxGeometry relative="1" as="geometry">
            <Array as="points">
              <mxPoint x="940" y="290" />
            </Array>
          </mxGeometry>
        </mxCell>
        <mxCell id="e0l2LWseTlkpB5ixs0CN-86" style="edgeStyle=orthogonalEdgeStyle;rounded=0;orthogonalLoop=1;jettySize=auto;html=1;" edge="1" parent="dNxyNK7c78bLwvsdeMH5-19" source="e0l2LWseTlkpB5ixs0CN-83" target="e0l2LWseTlkpB5ixs0CN-85">
          <mxGeometry relative="1" as="geometry">
            <Array as="points">
              <mxPoint x="1040" y="90" />
            </Array>
          </mxGeometry>
        </mxCell>
        <mxCell id="e0l2LWseTlkpB5ixs0CN-88" style="edgeStyle=orthogonalEdgeStyle;rounded=0;orthogonalLoop=1;jettySize=auto;html=1;" edge="1" parent="dNxyNK7c78bLwvsdeMH5-19" source="e0l2LWseTlkpB5ixs0CN-76" target="e0l2LWseTlkpB5ixs0CN-87">
          <mxGeometry relative="1" as="geometry">
            <Array as="points">
              <mxPoint x="650" y="350" />
              <mxPoint x="1180" y="350" />
            </Array>
          </mxGeometry>
        </mxCell>
        <mxCell id="e0l2LWseTlkpB5ixs0CN-92" style="edgeStyle=orthogonalEdgeStyle;rounded=0;orthogonalLoop=1;jettySize=auto;html=1;" edge="1" parent="dNxyNK7c78bLwvsdeMH5-19" source="e0l2LWseTlkpB5ixs0CN-87" target="e0l2LWseTlkpB5ixs0CN-91">
          <mxGeometry relative="1" as="geometry">
            <Array as="points">
              <mxPoint x="1260" y="80" />
            </Array>
          </mxGeometry>
        </mxCell>
        <mxCell id="e0l2LWseTlkpB5ixs0CN-94" style="edgeStyle=orthogonalEdgeStyle;rounded=0;orthogonalLoop=1;jettySize=auto;html=1;" edge="1" parent="dNxyNK7c78bLwvsdeMH5-19" source="e0l2LWseTlkpB5ixs0CN-91" target="e0l2LWseTlkpB5ixs0CN-93">
          <mxGeometry relative="1" as="geometry">
            <Array as="points">
              <mxPoint x="1360" y="290" />
            </Array>
          </mxGeometry>
        </mxCell>
        <mxCell id="e0l2LWseTlkpB5ixs0CN-96" style="edgeStyle=orthogonalEdgeStyle;rounded=0;orthogonalLoop=1;jettySize=auto;html=1;" edge="1" parent="dNxyNK7c78bLwvsdeMH5-19" source="e0l2LWseTlkpB5ixs0CN-91" target="e0l2LWseTlkpB5ixs0CN-95">
          <mxGeometry relative="1" as="geometry">
            <Array as="points">
              <mxPoint x="1470" y="290" />
            </Array>
          </mxGeometry>
        </mxCell>
        <mxCell id="e0l2LWseTlkpB5ixs0CN-98" style="edgeStyle=orthogonalEdgeStyle;rounded=0;orthogonalLoop=1;jettySize=auto;html=1;" edge="1" parent="dNxyNK7c78bLwvsdeMH5-19" source="e0l2LWseTlkpB5ixs0CN-95" target="e0l2LWseTlkpB5ixs0CN-97">
          <mxGeometry relative="1" as="geometry">
            <Array as="points">
              <mxPoint x="1560" y="80" />
            </Array>
          </mxGeometry>
        </mxCell>
        <mxCell id="e0l2LWseTlkpB5ixs0CN-99" style="edgeStyle=orthogonalEdgeStyle;rounded=0;orthogonalLoop=1;jettySize=auto;html=1;" edge="1" parent="dNxyNK7c78bLwvsdeMH5-19" source="e0l2LWseTlkpB5ixs0CN-93" target="e0l2LWseTlkpB5ixs0CN-97">
          <mxGeometry relative="1" as="geometry">
            <Array as="points">
              <mxPoint x="1410" y="40" />
              <mxPoint x="1600" y="40" />
            </Array>
          </mxGeometry>
        </mxCell>
        <mxCell id="e0l2LWseTlkpB5ixs0CN-5" value="Администратор и система выгрузка расписания в базу" style="swimlane;html=1;childLayout=stackLayout;resizeParent=1;resizeParentMax=0;horizontal=0;startSize=30;horizontalStack=0;labelBackgroundColor=none;" vertex="1" parent="1">
          <mxGeometry x="100" y="420" width="1720" height="360" as="geometry" />
        </mxCell>
        <mxCell id="e0l2LWseTlkpB5ixs0CN-6" value="Администратор" style="swimlane;html=1;startSize=20;horizontal=0;labelBackgroundColor=none;" vertex="1" parent="e0l2LWseTlkpB5ixs0CN-5">
          <mxGeometry x="30" width="1690" height="170" as="geometry" />
        </mxCell>
        <mxCell id="e0l2LWseTlkpB5ixs0CN-10" style="edgeStyle=orthogonalEdgeStyle;rounded=0;orthogonalLoop=1;jettySize=auto;html=1;labelBackgroundColor=none;fontColor=default;" edge="1" parent="e0l2LWseTlkpB5ixs0CN-6" source="e0l2LWseTlkpB5ixs0CN-7" target="e0l2LWseTlkpB5ixs0CN-9">
          <mxGeometry relative="1" as="geometry" />
        </mxCell>
        <mxCell id="e0l2LWseTlkpB5ixs0CN-7" value="" style="ellipse;html=1;labelBackgroundColor=none;" vertex="1" parent="e0l2LWseTlkpB5ixs0CN-6">
          <mxGeometry x="40" y="65" width="30" height="30" as="geometry" />
        </mxCell>
        <mxCell id="e0l2LWseTlkpB5ixs0CN-9" value="Открывает приложение&amp;nbsp;" style="rounded=1;whiteSpace=wrap;html=1;labelBackgroundColor=none;" vertex="1" parent="e0l2LWseTlkpB5ixs0CN-6">
          <mxGeometry x="90" y="50" width="120" height="60" as="geometry" />
        </mxCell>
        <mxCell id="e0l2LWseTlkpB5ixs0CN-15" value="Выбирает функцию изменения расписания" style="rounded=1;whiteSpace=wrap;html=1;labelBackgroundColor=none;" vertex="1" parent="e0l2LWseTlkpB5ixs0CN-6">
          <mxGeometry x="240" y="50" width="120" height="60" as="geometry" />
        </mxCell>
        <mxCell id="e0l2LWseTlkpB5ixs0CN-21" value="Удаляет расписание&amp;nbsp;" style="rounded=1;whiteSpace=wrap;html=1;labelBackgroundColor=none;" vertex="1" parent="e0l2LWseTlkpB5ixs0CN-6">
          <mxGeometry x="540" y="50" width="130" height="60" as="geometry" />
        </mxCell>
        <mxCell id="e0l2LWseTlkpB5ixs0CN-26" value="Загружает расписание" style="rounded=1;whiteSpace=wrap;html=1;labelBackgroundColor=none;" vertex="1" parent="e0l2LWseTlkpB5ixs0CN-6">
          <mxGeometry x="830" y="50" width="120" height="60" as="geometry" />
        </mxCell>
        <mxCell id="e0l2LWseTlkpB5ixs0CN-39" style="edgeStyle=orthogonalEdgeStyle;rounded=0;orthogonalLoop=1;jettySize=auto;html=1;" edge="1" parent="e0l2LWseTlkpB5ixs0CN-6" source="e0l2LWseTlkpB5ixs0CN-33" target="e0l2LWseTlkpB5ixs0CN-38">
          <mxGeometry relative="1" as="geometry">
            <Array as="points">
              <mxPoint x="1160" y="40" />
            </Array>
          </mxGeometry>
        </mxCell>
        <mxCell id="e0l2LWseTlkpB5ixs0CN-45" style="edgeStyle=orthogonalEdgeStyle;rounded=0;orthogonalLoop=1;jettySize=auto;html=1;" edge="1" parent="e0l2LWseTlkpB5ixs0CN-6" source="e0l2LWseTlkpB5ixs0CN-33" target="e0l2LWseTlkpB5ixs0CN-44">
          <mxGeometry relative="1" as="geometry" />
        </mxCell>
        <mxCell id="e0l2LWseTlkpB5ixs0CN-33" value="Проверяет корректность отображаемых данных" style="rounded=1;whiteSpace=wrap;html=1;labelBackgroundColor=none;" vertex="1" parent="e0l2LWseTlkpB5ixs0CN-6">
          <mxGeometry x="1100" y="75" width="120" height="60" as="geometry" />
        </mxCell>
        <mxCell id="e0l2LWseTlkpB5ixs0CN-38" value="Нажимает на кнопку сохранения расписания" style="rounded=1;whiteSpace=wrap;html=1;labelBackgroundColor=none;" vertex="1" parent="e0l2LWseTlkpB5ixs0CN-6">
          <mxGeometry x="1450" y="10" width="120" height="60" as="geometry" />
        </mxCell>
        <mxCell id="e0l2LWseTlkpB5ixs0CN-44" value="Если расписание отображается не так, как должно, изменяет файл и загружает повторно" style="rounded=1;whiteSpace=wrap;html=1;labelBackgroundColor=none;" vertex="1" parent="e0l2LWseTlkpB5ixs0CN-6">
          <mxGeometry x="1270" y="65" width="140" height="80" as="geometry" />
        </mxCell>
        <mxCell id="e0l2LWseTlkpB5ixs0CN-12" style="edgeStyle=orthogonalEdgeStyle;rounded=0;orthogonalLoop=1;jettySize=auto;html=1;labelBackgroundColor=none;fontColor=default;" edge="1" parent="e0l2LWseTlkpB5ixs0CN-5" source="e0l2LWseTlkpB5ixs0CN-9" target="e0l2LWseTlkpB5ixs0CN-11">
          <mxGeometry relative="1" as="geometry" />
        </mxCell>
        <mxCell id="e0l2LWseTlkpB5ixs0CN-16" style="edgeStyle=orthogonalEdgeStyle;rounded=0;orthogonalLoop=1;jettySize=auto;html=1;labelBackgroundColor=none;fontColor=default;" edge="1" parent="e0l2LWseTlkpB5ixs0CN-5" source="e0l2LWseTlkpB5ixs0CN-13" target="e0l2LWseTlkpB5ixs0CN-15">
          <mxGeometry relative="1" as="geometry" />
        </mxCell>
        <mxCell id="e0l2LWseTlkpB5ixs0CN-18" style="edgeStyle=orthogonalEdgeStyle;rounded=0;orthogonalLoop=1;jettySize=auto;html=1;labelBackgroundColor=none;fontColor=default;" edge="1" parent="e0l2LWseTlkpB5ixs0CN-5" source="e0l2LWseTlkpB5ixs0CN-15" target="e0l2LWseTlkpB5ixs0CN-17">
          <mxGeometry relative="1" as="geometry" />
        </mxCell>
        <mxCell id="e0l2LWseTlkpB5ixs0CN-22" style="edgeStyle=orthogonalEdgeStyle;rounded=0;orthogonalLoop=1;jettySize=auto;html=1;labelBackgroundColor=none;fontColor=default;" edge="1" parent="e0l2LWseTlkpB5ixs0CN-5" source="e0l2LWseTlkpB5ixs0CN-19" target="e0l2LWseTlkpB5ixs0CN-21">
          <mxGeometry relative="1" as="geometry" />
        </mxCell>
        <mxCell id="e0l2LWseTlkpB5ixs0CN-27" style="edgeStyle=orthogonalEdgeStyle;rounded=0;orthogonalLoop=1;jettySize=auto;html=1;labelBackgroundColor=none;fontColor=default;" edge="1" parent="e0l2LWseTlkpB5ixs0CN-5" source="e0l2LWseTlkpB5ixs0CN-24" target="e0l2LWseTlkpB5ixs0CN-26">
          <mxGeometry relative="1" as="geometry" />
        </mxCell>
        <mxCell id="e0l2LWseTlkpB5ixs0CN-8" value="Система" style="swimlane;html=1;startSize=20;horizontal=0;labelBackgroundColor=none;" vertex="1" parent="e0l2LWseTlkpB5ixs0CN-5">
          <mxGeometry x="30" y="170" width="1690" height="190" as="geometry" />
        </mxCell>
        <mxCell id="e0l2LWseTlkpB5ixs0CN-14" style="edgeStyle=orthogonalEdgeStyle;rounded=0;orthogonalLoop=1;jettySize=auto;html=1;labelBackgroundColor=none;fontColor=default;" edge="1" parent="e0l2LWseTlkpB5ixs0CN-8" source="e0l2LWseTlkpB5ixs0CN-11" target="e0l2LWseTlkpB5ixs0CN-13">
          <mxGeometry relative="1" as="geometry" />
        </mxCell>
        <mxCell id="e0l2LWseTlkpB5ixs0CN-11" value="Распознает аккаунт администратора" style="rounded=1;whiteSpace=wrap;html=1;labelBackgroundColor=none;" vertex="1" parent="e0l2LWseTlkpB5ixs0CN-8">
          <mxGeometry x="90" y="60" width="120" height="60" as="geometry" />
        </mxCell>
        <mxCell id="e0l2LWseTlkpB5ixs0CN-13" value="Открывает функционал, доступный пользователю" style="rounded=1;whiteSpace=wrap;html=1;labelBackgroundColor=none;" vertex="1" parent="e0l2LWseTlkpB5ixs0CN-8">
          <mxGeometry x="240" y="60" width="120" height="60" as="geometry" />
        </mxCell>
        <mxCell id="e0l2LWseTlkpB5ixs0CN-20" style="edgeStyle=orthogonalEdgeStyle;rounded=0;orthogonalLoop=1;jettySize=auto;html=1;labelBackgroundColor=none;fontColor=default;" edge="1" parent="e0l2LWseTlkpB5ixs0CN-8" source="e0l2LWseTlkpB5ixs0CN-17" target="e0l2LWseTlkpB5ixs0CN-19">
          <mxGeometry relative="1" as="geometry" />
        </mxCell>
        <mxCell id="e0l2LWseTlkpB5ixs0CN-25" style="edgeStyle=orthogonalEdgeStyle;rounded=0;orthogonalLoop=1;jettySize=auto;html=1;labelBackgroundColor=none;fontColor=default;" edge="1" parent="e0l2LWseTlkpB5ixs0CN-8" source="e0l2LWseTlkpB5ixs0CN-17" target="e0l2LWseTlkpB5ixs0CN-24">
          <mxGeometry relative="1" as="geometry">
            <Array as="points">
              <mxPoint x="440" y="130" />
            </Array>
          </mxGeometry>
        </mxCell>
        <mxCell id="e0l2LWseTlkpB5ixs0CN-17" value="Открывает окно изменения расписания" style="rounded=1;whiteSpace=wrap;html=1;labelBackgroundColor=none;" vertex="1" parent="e0l2LWseTlkpB5ixs0CN-8">
          <mxGeometry x="380" y="60" width="120" height="60" as="geometry" />
        </mxCell>
        <mxCell id="e0l2LWseTlkpB5ixs0CN-19" value="Если расписание уже имелось, то предлагает удалить его, для дальнейшей загрузки нового" style="rounded=1;whiteSpace=wrap;html=1;labelBackgroundColor=none;" vertex="1" parent="e0l2LWseTlkpB5ixs0CN-8">
          <mxGeometry x="530" y="10" width="150" height="80" as="geometry" />
        </mxCell>
        <mxCell id="e0l2LWseTlkpB5ixs0CN-24" value="Предлагает загрузить файл с расписанием" style="rounded=1;whiteSpace=wrap;html=1;labelBackgroundColor=none;" vertex="1" parent="e0l2LWseTlkpB5ixs0CN-8">
          <mxGeometry x="700" y="100" width="120" height="60" as="geometry" />
        </mxCell>
        <mxCell id="e0l2LWseTlkpB5ixs0CN-32" style="edgeStyle=orthogonalEdgeStyle;rounded=0;orthogonalLoop=1;jettySize=auto;html=1;labelBackgroundColor=none;fontColor=default;" edge="1" parent="e0l2LWseTlkpB5ixs0CN-8" source="e0l2LWseTlkpB5ixs0CN-29" target="e0l2LWseTlkpB5ixs0CN-31">
          <mxGeometry relative="1" as="geometry" />
        </mxCell>
        <mxCell id="e0l2LWseTlkpB5ixs0CN-29" value="Обрабатывает расписание&amp;nbsp;" style="rounded=1;whiteSpace=wrap;html=1;labelBackgroundColor=none;" vertex="1" parent="e0l2LWseTlkpB5ixs0CN-8">
          <mxGeometry x="940" y="80" width="120" height="60" as="geometry" />
        </mxCell>
        <mxCell id="e0l2LWseTlkpB5ixs0CN-31" value="Выводит окно предварительного просмотра" style="rounded=1;whiteSpace=wrap;html=1;labelBackgroundColor=none;" vertex="1" parent="e0l2LWseTlkpB5ixs0CN-8">
          <mxGeometry x="1100" y="80" width="120" height="60" as="geometry" />
        </mxCell>
        <mxCell id="e0l2LWseTlkpB5ixs0CN-43" style="edgeStyle=orthogonalEdgeStyle;rounded=0;orthogonalLoop=1;jettySize=auto;html=1;" edge="1" parent="e0l2LWseTlkpB5ixs0CN-8" source="e0l2LWseTlkpB5ixs0CN-40" target="e0l2LWseTlkpB5ixs0CN-42">
          <mxGeometry relative="1" as="geometry" />
        </mxCell>
        <mxCell id="e0l2LWseTlkpB5ixs0CN-40" value="Устанавливает новое расписание&amp;nbsp;" style="rounded=1;whiteSpace=wrap;html=1;labelBackgroundColor=none;" vertex="1" parent="e0l2LWseTlkpB5ixs0CN-8">
          <mxGeometry x="1450" y="80" width="120" height="60" as="geometry" />
        </mxCell>
        <mxCell id="e0l2LWseTlkpB5ixs0CN-42" value="" style="ellipse;html=1;shape=endState;fillColor=strokeColor;" vertex="1" parent="e0l2LWseTlkpB5ixs0CN-8">
          <mxGeometry x="1640" y="95" width="30" height="30" as="geometry" />
        </mxCell>
        <mxCell id="e0l2LWseTlkpB5ixs0CN-28" style="edgeStyle=orthogonalEdgeStyle;rounded=0;orthogonalLoop=1;jettySize=auto;html=1;labelBackgroundColor=none;fontColor=default;" edge="1" parent="e0l2LWseTlkpB5ixs0CN-5" source="e0l2LWseTlkpB5ixs0CN-21" target="e0l2LWseTlkpB5ixs0CN-24">
          <mxGeometry relative="1" as="geometry" />
        </mxCell>
        <mxCell id="e0l2LWseTlkpB5ixs0CN-30" style="edgeStyle=orthogonalEdgeStyle;rounded=0;orthogonalLoop=1;jettySize=auto;html=1;labelBackgroundColor=none;fontColor=default;" edge="1" parent="e0l2LWseTlkpB5ixs0CN-5" source="e0l2LWseTlkpB5ixs0CN-26" target="e0l2LWseTlkpB5ixs0CN-29">
          <mxGeometry relative="1" as="geometry">
            <Array as="points">
              <mxPoint x="1030" y="80" />
            </Array>
          </mxGeometry>
        </mxCell>
        <mxCell id="e0l2LWseTlkpB5ixs0CN-34" style="edgeStyle=orthogonalEdgeStyle;rounded=0;orthogonalLoop=1;jettySize=auto;html=1;labelBackgroundColor=none;fontColor=default;" edge="1" parent="e0l2LWseTlkpB5ixs0CN-5" source="e0l2LWseTlkpB5ixs0CN-31" target="e0l2LWseTlkpB5ixs0CN-33">
          <mxGeometry relative="1" as="geometry" />
        </mxCell>
        <mxCell id="e0l2LWseTlkpB5ixs0CN-41" style="edgeStyle=orthogonalEdgeStyle;rounded=0;orthogonalLoop=1;jettySize=auto;html=1;" edge="1" parent="e0l2LWseTlkpB5ixs0CN-5" source="e0l2LWseTlkpB5ixs0CN-38" target="e0l2LWseTlkpB5ixs0CN-40">
          <mxGeometry relative="1" as="geometry" />
        </mxCell>
        <mxCell id="e0l2LWseTlkpB5ixs0CN-46" style="edgeStyle=orthogonalEdgeStyle;rounded=0;orthogonalLoop=1;jettySize=auto;html=1;" edge="1" parent="e0l2LWseTlkpB5ixs0CN-5" source="e0l2LWseTlkpB5ixs0CN-44" target="e0l2LWseTlkpB5ixs0CN-29">
          <mxGeometry relative="1" as="geometry">
            <Array as="points">
              <mxPoint x="1370" y="340" />
              <mxPoint x="1030" y="340" />
            </Array>
          </mxGeometry>
        </mxCell>
        <mxCell id="e0l2LWseTlkpB5ixs0CN-142" value="Староста отмечает статус студента на паре" style="swimlane;html=1;childLayout=stackLayout;resizeParent=1;resizeParentMax=0;horizontal=0;startSize=30;horizontalStack=0;labelBackgroundColor=none;" vertex="1" parent="1">
          <mxGeometry x="100" y="800" width="1220" height="360" as="geometry" />
        </mxCell>
        <mxCell id="e0l2LWseTlkpB5ixs0CN-143" value="Староста" style="swimlane;html=1;startSize=20;horizontal=0;labelBackgroundColor=none;" vertex="1" parent="e0l2LWseTlkpB5ixs0CN-142">
          <mxGeometry x="30" width="1190" height="170" as="geometry" />
        </mxCell>
        <mxCell id="e0l2LWseTlkpB5ixs0CN-144" style="edgeStyle=orthogonalEdgeStyle;rounded=0;orthogonalLoop=1;jettySize=auto;html=1;labelBackgroundColor=none;fontColor=default;" edge="1" parent="e0l2LWseTlkpB5ixs0CN-143" source="e0l2LWseTlkpB5ixs0CN-145" target="e0l2LWseTlkpB5ixs0CN-146">
          <mxGeometry relative="1" as="geometry" />
        </mxCell>
        <mxCell id="e0l2LWseTlkpB5ixs0CN-145" value="" style="ellipse;html=1;labelBackgroundColor=none;" vertex="1" parent="e0l2LWseTlkpB5ixs0CN-143">
          <mxGeometry x="40" y="65" width="30" height="30" as="geometry" />
        </mxCell>
        <mxCell id="e0l2LWseTlkpB5ixs0CN-146" value="Открывает приложение&amp;nbsp;" style="rounded=1;whiteSpace=wrap;html=1;labelBackgroundColor=none;" vertex="1" parent="e0l2LWseTlkpB5ixs0CN-143">
          <mxGeometry x="90" y="50" width="120" height="60" as="geometry" />
        </mxCell>
        <mxCell id="e0l2LWseTlkpB5ixs0CN-147" value="Выбирает пару с которой будет производиться работа" style="rounded=1;whiteSpace=wrap;html=1;labelBackgroundColor=none;" vertex="1" parent="e0l2LWseTlkpB5ixs0CN-143">
          <mxGeometry x="240" y="50" width="120" height="60" as="geometry" />
        </mxCell>
        <mxCell id="e0l2LWseTlkpB5ixs0CN-181" style="edgeStyle=orthogonalEdgeStyle;rounded=0;orthogonalLoop=1;jettySize=auto;html=1;" edge="1" parent="e0l2LWseTlkpB5ixs0CN-143" source="e0l2LWseTlkpB5ixs0CN-148" target="e0l2LWseTlkpB5ixs0CN-149">
          <mxGeometry relative="1" as="geometry" />
        </mxCell>
        <mxCell id="e0l2LWseTlkpB5ixs0CN-148" value="Отмечает статус студентов" style="rounded=1;whiteSpace=wrap;html=1;labelBackgroundColor=none;" vertex="1" parent="e0l2LWseTlkpB5ixs0CN-143">
          <mxGeometry x="540" y="50" width="130" height="60" as="geometry" />
        </mxCell>
        <mxCell id="e0l2LWseTlkpB5ixs0CN-149" value="Нажимает кнопку сохранить" style="rounded=1;whiteSpace=wrap;html=1;labelBackgroundColor=none;" vertex="1" parent="e0l2LWseTlkpB5ixs0CN-143">
          <mxGeometry x="720" y="50" width="120" height="60" as="geometry" />
        </mxCell>
        <mxCell id="e0l2LWseTlkpB5ixs0CN-155" style="edgeStyle=orthogonalEdgeStyle;rounded=0;orthogonalLoop=1;jettySize=auto;html=1;labelBackgroundColor=none;fontColor=default;" edge="1" parent="e0l2LWseTlkpB5ixs0CN-142" source="e0l2LWseTlkpB5ixs0CN-146" target="e0l2LWseTlkpB5ixs0CN-162">
          <mxGeometry relative="1" as="geometry" />
        </mxCell>
        <mxCell id="e0l2LWseTlkpB5ixs0CN-156" style="edgeStyle=orthogonalEdgeStyle;rounded=0;orthogonalLoop=1;jettySize=auto;html=1;labelBackgroundColor=none;fontColor=default;" edge="1" parent="e0l2LWseTlkpB5ixs0CN-142" source="e0l2LWseTlkpB5ixs0CN-163" target="e0l2LWseTlkpB5ixs0CN-147">
          <mxGeometry relative="1" as="geometry" />
        </mxCell>
        <mxCell id="e0l2LWseTlkpB5ixs0CN-157" style="edgeStyle=orthogonalEdgeStyle;rounded=0;orthogonalLoop=1;jettySize=auto;html=1;labelBackgroundColor=none;fontColor=default;" edge="1" parent="e0l2LWseTlkpB5ixs0CN-142" source="e0l2LWseTlkpB5ixs0CN-147" target="e0l2LWseTlkpB5ixs0CN-166">
          <mxGeometry relative="1" as="geometry" />
        </mxCell>
        <mxCell id="e0l2LWseTlkpB5ixs0CN-158" style="edgeStyle=orthogonalEdgeStyle;rounded=0;orthogonalLoop=1;jettySize=auto;html=1;labelBackgroundColor=none;fontColor=default;" edge="1" parent="e0l2LWseTlkpB5ixs0CN-142" source="e0l2LWseTlkpB5ixs0CN-167" target="e0l2LWseTlkpB5ixs0CN-148">
          <mxGeometry relative="1" as="geometry" />
        </mxCell>
        <mxCell id="e0l2LWseTlkpB5ixs0CN-160" value="Система" style="swimlane;html=1;startSize=20;horizontal=0;labelBackgroundColor=none;" vertex="1" parent="e0l2LWseTlkpB5ixs0CN-142">
          <mxGeometry x="30" y="170" width="1190" height="190" as="geometry" />
        </mxCell>
        <mxCell id="e0l2LWseTlkpB5ixs0CN-161" style="edgeStyle=orthogonalEdgeStyle;rounded=0;orthogonalLoop=1;jettySize=auto;html=1;labelBackgroundColor=none;fontColor=default;" edge="1" parent="e0l2LWseTlkpB5ixs0CN-160" source="e0l2LWseTlkpB5ixs0CN-162" target="e0l2LWseTlkpB5ixs0CN-163">
          <mxGeometry relative="1" as="geometry" />
        </mxCell>
        <mxCell id="e0l2LWseTlkpB5ixs0CN-162" value="Распознает аккаунт старосты" style="rounded=1;whiteSpace=wrap;html=1;labelBackgroundColor=none;" vertex="1" parent="e0l2LWseTlkpB5ixs0CN-160">
          <mxGeometry x="90" y="60" width="120" height="60" as="geometry" />
        </mxCell>
        <mxCell id="e0l2LWseTlkpB5ixs0CN-163" value="Открывает функционал, доступный пользователю" style="rounded=1;whiteSpace=wrap;html=1;labelBackgroundColor=none;" vertex="1" parent="e0l2LWseTlkpB5ixs0CN-160">
          <mxGeometry x="240" y="60" width="120" height="60" as="geometry" />
        </mxCell>
        <mxCell id="e0l2LWseTlkpB5ixs0CN-164" style="edgeStyle=orthogonalEdgeStyle;rounded=0;orthogonalLoop=1;jettySize=auto;html=1;labelBackgroundColor=none;fontColor=default;" edge="1" parent="e0l2LWseTlkpB5ixs0CN-160" source="e0l2LWseTlkpB5ixs0CN-166" target="e0l2LWseTlkpB5ixs0CN-167">
          <mxGeometry relative="1" as="geometry" />
        </mxCell>
        <mxCell id="e0l2LWseTlkpB5ixs0CN-166" value="Открывает окно, где можно отметить статус студента" style="rounded=1;whiteSpace=wrap;html=1;labelBackgroundColor=none;" vertex="1" parent="e0l2LWseTlkpB5ixs0CN-160">
          <mxGeometry x="380" y="60" width="120" height="60" as="geometry" />
        </mxCell>
        <mxCell id="e0l2LWseTlkpB5ixs0CN-167" value="По умолчанию у каждого студента стоит &quot;присутствует&quot;" style="rounded=1;whiteSpace=wrap;html=1;labelBackgroundColor=none;" vertex="1" parent="e0l2LWseTlkpB5ixs0CN-160">
          <mxGeometry x="537.5" y="57.5" width="135" height="65" as="geometry" />
        </mxCell>
        <mxCell id="e0l2LWseTlkpB5ixs0CN-183" style="edgeStyle=orthogonalEdgeStyle;rounded=0;orthogonalLoop=1;jettySize=auto;html=1;entryX=0;entryY=0.5;entryDx=0;entryDy=0;" edge="1" parent="e0l2LWseTlkpB5ixs0CN-160" source="e0l2LWseTlkpB5ixs0CN-170" target="e0l2LWseTlkpB5ixs0CN-171">
          <mxGeometry relative="1" as="geometry" />
        </mxCell>
        <mxCell id="e0l2LWseTlkpB5ixs0CN-170" value="Сохраняет данные в базе" style="rounded=1;whiteSpace=wrap;html=1;labelBackgroundColor=none;" vertex="1" parent="e0l2LWseTlkpB5ixs0CN-160">
          <mxGeometry x="720" y="60" width="120" height="60" as="geometry" />
        </mxCell>
        <mxCell id="e0l2LWseTlkpB5ixs0CN-171" value="Закрывает возможность редакрирования данной пары для старосты" style="rounded=1;whiteSpace=wrap;html=1;labelBackgroundColor=none;" vertex="1" parent="e0l2LWseTlkpB5ixs0CN-160">
          <mxGeometry x="900" y="55" width="140" height="70" as="geometry" />
        </mxCell>
        <mxCell id="e0l2LWseTlkpB5ixs0CN-172" style="edgeStyle=orthogonalEdgeStyle;rounded=0;orthogonalLoop=1;jettySize=auto;html=1;" edge="1" parent="e0l2LWseTlkpB5ixs0CN-160" source="e0l2LWseTlkpB5ixs0CN-171" target="e0l2LWseTlkpB5ixs0CN-174">
          <mxGeometry relative="1" as="geometry">
            <mxPoint x="1570" y="110" as="sourcePoint" />
          </mxGeometry>
        </mxCell>
        <mxCell id="e0l2LWseTlkpB5ixs0CN-174" value="" style="ellipse;html=1;shape=endState;fillColor=strokeColor;" vertex="1" parent="e0l2LWseTlkpB5ixs0CN-160">
          <mxGeometry x="1120" y="75" width="30" height="30" as="geometry" />
        </mxCell>
        <mxCell id="e0l2LWseTlkpB5ixs0CN-182" style="edgeStyle=orthogonalEdgeStyle;rounded=0;orthogonalLoop=1;jettySize=auto;html=1;" edge="1" parent="e0l2LWseTlkpB5ixs0CN-142" source="e0l2LWseTlkpB5ixs0CN-149" target="e0l2LWseTlkpB5ixs0CN-170">
          <mxGeometry relative="1" as="geometry" />
        </mxCell>
        <mxCell id="e0l2LWseTlkpB5ixs0CN-188" value="Преподаватель отмечает статус студента на паре" style="swimlane;html=1;childLayout=stackLayout;resizeParent=1;resizeParentMax=0;horizontal=0;startSize=30;horizontalStack=0;labelBackgroundColor=none;" vertex="1" parent="1">
          <mxGeometry x="100" y="1180" width="1220" height="360" as="geometry" />
        </mxCell>
        <mxCell id="e0l2LWseTlkpB5ixs0CN-189" value="Преподаватель" style="swimlane;html=1;startSize=20;horizontal=0;labelBackgroundColor=none;" vertex="1" parent="e0l2LWseTlkpB5ixs0CN-188">
          <mxGeometry x="30" width="1190" height="170" as="geometry" />
        </mxCell>
        <mxCell id="e0l2LWseTlkpB5ixs0CN-190" style="edgeStyle=orthogonalEdgeStyle;rounded=0;orthogonalLoop=1;jettySize=auto;html=1;labelBackgroundColor=none;fontColor=default;" edge="1" parent="e0l2LWseTlkpB5ixs0CN-189" source="e0l2LWseTlkpB5ixs0CN-191" target="e0l2LWseTlkpB5ixs0CN-192">
          <mxGeometry relative="1" as="geometry" />
        </mxCell>
        <mxCell id="e0l2LWseTlkpB5ixs0CN-191" value="" style="ellipse;html=1;labelBackgroundColor=none;" vertex="1" parent="e0l2LWseTlkpB5ixs0CN-189">
          <mxGeometry x="40" y="65" width="30" height="30" as="geometry" />
        </mxCell>
        <mxCell id="e0l2LWseTlkpB5ixs0CN-192" value="Открывает приложение&amp;nbsp;" style="rounded=1;whiteSpace=wrap;html=1;labelBackgroundColor=none;" vertex="1" parent="e0l2LWseTlkpB5ixs0CN-189">
          <mxGeometry x="90" y="50" width="120" height="60" as="geometry" />
        </mxCell>
        <mxCell id="e0l2LWseTlkpB5ixs0CN-193" value="Выбирает пару с которой будет производиться работа" style="rounded=1;whiteSpace=wrap;html=1;labelBackgroundColor=none;" vertex="1" parent="e0l2LWseTlkpB5ixs0CN-189">
          <mxGeometry x="240" y="50" width="120" height="60" as="geometry" />
        </mxCell>
        <mxCell id="e0l2LWseTlkpB5ixs0CN-194" style="edgeStyle=orthogonalEdgeStyle;rounded=0;orthogonalLoop=1;jettySize=auto;html=1;" edge="1" parent="e0l2LWseTlkpB5ixs0CN-189" source="e0l2LWseTlkpB5ixs0CN-195" target="e0l2LWseTlkpB5ixs0CN-197">
          <mxGeometry relative="1" as="geometry" />
        </mxCell>
        <mxCell id="e0l2LWseTlkpB5ixs0CN-195" value="Отмечает статус студентов" style="rounded=1;whiteSpace=wrap;html=1;labelBackgroundColor=none;" vertex="1" parent="e0l2LWseTlkpB5ixs0CN-189">
          <mxGeometry x="540" y="50" width="130" height="60" as="geometry" />
        </mxCell>
        <mxCell id="e0l2LWseTlkpB5ixs0CN-196" style="edgeStyle=orthogonalEdgeStyle;rounded=0;orthogonalLoop=1;jettySize=auto;html=1;" edge="1" parent="e0l2LWseTlkpB5ixs0CN-189" source="e0l2LWseTlkpB5ixs0CN-197" target="e0l2LWseTlkpB5ixs0CN-198">
          <mxGeometry relative="1" as="geometry" />
        </mxCell>
        <mxCell id="e0l2LWseTlkpB5ixs0CN-197" value="Нажимает кнопку сохранить" style="rounded=1;whiteSpace=wrap;html=1;labelBackgroundColor=none;" vertex="1" parent="e0l2LWseTlkpB5ixs0CN-189">
          <mxGeometry x="720" y="50" width="120" height="60" as="geometry" />
        </mxCell>
        <mxCell id="e0l2LWseTlkpB5ixs0CN-198" value="Просматривает данных по данной паре" style="rounded=1;whiteSpace=wrap;html=1;labelBackgroundColor=none;" vertex="1" parent="e0l2LWseTlkpB5ixs0CN-189">
          <mxGeometry x="940" y="50" width="120" height="60" as="geometry" />
        </mxCell>
        <mxCell id="e0l2LWseTlkpB5ixs0CN-199" style="edgeStyle=orthogonalEdgeStyle;rounded=0;orthogonalLoop=1;jettySize=auto;html=1;labelBackgroundColor=none;fontColor=default;" edge="1" parent="e0l2LWseTlkpB5ixs0CN-188" source="e0l2LWseTlkpB5ixs0CN-192" target="e0l2LWseTlkpB5ixs0CN-205">
          <mxGeometry relative="1" as="geometry" />
        </mxCell>
        <mxCell id="e0l2LWseTlkpB5ixs0CN-200" style="edgeStyle=orthogonalEdgeStyle;rounded=0;orthogonalLoop=1;jettySize=auto;html=1;labelBackgroundColor=none;fontColor=default;" edge="1" parent="e0l2LWseTlkpB5ixs0CN-188" source="e0l2LWseTlkpB5ixs0CN-206" target="e0l2LWseTlkpB5ixs0CN-193">
          <mxGeometry relative="1" as="geometry" />
        </mxCell>
        <mxCell id="e0l2LWseTlkpB5ixs0CN-201" style="edgeStyle=orthogonalEdgeStyle;rounded=0;orthogonalLoop=1;jettySize=auto;html=1;labelBackgroundColor=none;fontColor=default;" edge="1" parent="e0l2LWseTlkpB5ixs0CN-188" source="e0l2LWseTlkpB5ixs0CN-193" target="e0l2LWseTlkpB5ixs0CN-208">
          <mxGeometry relative="1" as="geometry" />
        </mxCell>
        <mxCell id="e0l2LWseTlkpB5ixs0CN-202" style="edgeStyle=orthogonalEdgeStyle;rounded=0;orthogonalLoop=1;jettySize=auto;html=1;labelBackgroundColor=none;fontColor=default;" edge="1" parent="e0l2LWseTlkpB5ixs0CN-188" source="e0l2LWseTlkpB5ixs0CN-209" target="e0l2LWseTlkpB5ixs0CN-195">
          <mxGeometry relative="1" as="geometry" />
        </mxCell>
        <mxCell id="e0l2LWseTlkpB5ixs0CN-203" value="Система" style="swimlane;html=1;startSize=20;horizontal=0;labelBackgroundColor=none;" vertex="1" parent="e0l2LWseTlkpB5ixs0CN-188">
          <mxGeometry x="30" y="170" width="1190" height="190" as="geometry" />
        </mxCell>
        <mxCell id="e0l2LWseTlkpB5ixs0CN-204" style="edgeStyle=orthogonalEdgeStyle;rounded=0;orthogonalLoop=1;jettySize=auto;html=1;labelBackgroundColor=none;fontColor=default;" edge="1" parent="e0l2LWseTlkpB5ixs0CN-203" source="e0l2LWseTlkpB5ixs0CN-205" target="e0l2LWseTlkpB5ixs0CN-206">
          <mxGeometry relative="1" as="geometry" />
        </mxCell>
        <mxCell id="e0l2LWseTlkpB5ixs0CN-205" value="Распознает аккаунт преподавателя" style="rounded=1;whiteSpace=wrap;html=1;labelBackgroundColor=none;" vertex="1" parent="e0l2LWseTlkpB5ixs0CN-203">
          <mxGeometry x="90" y="60" width="120" height="60" as="geometry" />
        </mxCell>
        <mxCell id="e0l2LWseTlkpB5ixs0CN-206" value="Открывает функционал, доступный пользователю" style="rounded=1;whiteSpace=wrap;html=1;labelBackgroundColor=none;" vertex="1" parent="e0l2LWseTlkpB5ixs0CN-203">
          <mxGeometry x="240" y="60" width="120" height="60" as="geometry" />
        </mxCell>
        <mxCell id="e0l2LWseTlkpB5ixs0CN-207" style="edgeStyle=orthogonalEdgeStyle;rounded=0;orthogonalLoop=1;jettySize=auto;html=1;labelBackgroundColor=none;fontColor=default;" edge="1" parent="e0l2LWseTlkpB5ixs0CN-203" source="e0l2LWseTlkpB5ixs0CN-208" target="e0l2LWseTlkpB5ixs0CN-209">
          <mxGeometry relative="1" as="geometry" />
        </mxCell>
        <mxCell id="e0l2LWseTlkpB5ixs0CN-208" value="Открывает окно, где можно отметить статус студента" style="rounded=1;whiteSpace=wrap;html=1;labelBackgroundColor=none;" vertex="1" parent="e0l2LWseTlkpB5ixs0CN-203">
          <mxGeometry x="380" y="60" width="120" height="60" as="geometry" />
        </mxCell>
        <mxCell id="e0l2LWseTlkpB5ixs0CN-209" value="По умолчанию у каждого студента стоит &quot;присутствует&quot;" style="rounded=1;whiteSpace=wrap;html=1;labelBackgroundColor=none;" vertex="1" parent="e0l2LWseTlkpB5ixs0CN-203">
          <mxGeometry x="537.5" y="57.5" width="135" height="65" as="geometry" />
        </mxCell>
        <mxCell id="e0l2LWseTlkpB5ixs0CN-219" style="edgeStyle=orthogonalEdgeStyle;rounded=0;orthogonalLoop=1;jettySize=auto;html=1;" edge="1" parent="e0l2LWseTlkpB5ixs0CN-203" source="e0l2LWseTlkpB5ixs0CN-211" target="e0l2LWseTlkpB5ixs0CN-214">
          <mxGeometry relative="1" as="geometry" />
        </mxCell>
        <mxCell id="e0l2LWseTlkpB5ixs0CN-211" value="Сохраняет данные в базе" style="rounded=1;whiteSpace=wrap;html=1;labelBackgroundColor=none;" vertex="1" parent="e0l2LWseTlkpB5ixs0CN-203">
          <mxGeometry x="720" y="60" width="120" height="60" as="geometry" />
        </mxCell>
        <mxCell id="e0l2LWseTlkpB5ixs0CN-214" value="" style="ellipse;html=1;shape=endState;fillColor=strokeColor;" vertex="1" parent="e0l2LWseTlkpB5ixs0CN-203">
          <mxGeometry x="1120" y="75" width="30" height="30" as="geometry" />
        </mxCell>
        <mxCell id="e0l2LWseTlkpB5ixs0CN-215" style="edgeStyle=orthogonalEdgeStyle;rounded=0;orthogonalLoop=1;jettySize=auto;html=1;" edge="1" parent="e0l2LWseTlkpB5ixs0CN-188" source="e0l2LWseTlkpB5ixs0CN-197" target="e0l2LWseTlkpB5ixs0CN-211">
          <mxGeometry relative="1" as="geometry" />
        </mxCell>
        <mxCell id="e0l2LWseTlkpB5ixs0CN-210" style="edgeStyle=orthogonalEdgeStyle;rounded=0;orthogonalLoop=1;jettySize=auto;html=1;" edge="1" parent="e0l2LWseTlkpB5ixs0CN-188" source="e0l2LWseTlkpB5ixs0CN-211" target="e0l2LWseTlkpB5ixs0CN-198">
          <mxGeometry relative="1" as="geometry">
            <mxPoint x="930" y="260" as="targetPoint" />
          </mxGeometry>
        </mxCell>
        <mxCell id="e0l2LWseTlkpB5ixs0CN-220" value="Преподаватель отмечает статус студента на паре после того, &lt;br&gt;как информация выгружена" style="swimlane;html=1;childLayout=stackLayout;resizeParent=1;resizeParentMax=0;horizontal=0;startSize=30;horizontalStack=0;labelBackgroundColor=none;" vertex="1" parent="1">
          <mxGeometry x="100" y="1560" width="1220" height="360" as="geometry" />
        </mxCell>
        <mxCell id="e0l2LWseTlkpB5ixs0CN-221" value="Преподаватель" style="swimlane;html=1;startSize=20;horizontal=0;labelBackgroundColor=none;" vertex="1" parent="e0l2LWseTlkpB5ixs0CN-220">
          <mxGeometry x="30" width="1190" height="170" as="geometry" />
        </mxCell>
        <mxCell id="e0l2LWseTlkpB5ixs0CN-222" style="edgeStyle=orthogonalEdgeStyle;rounded=0;orthogonalLoop=1;jettySize=auto;html=1;labelBackgroundColor=none;fontColor=default;" edge="1" parent="e0l2LWseTlkpB5ixs0CN-221" source="e0l2LWseTlkpB5ixs0CN-223" target="e0l2LWseTlkpB5ixs0CN-224">
          <mxGeometry relative="1" as="geometry" />
        </mxCell>
        <mxCell id="e0l2LWseTlkpB5ixs0CN-223" value="" style="ellipse;html=1;labelBackgroundColor=none;" vertex="1" parent="e0l2LWseTlkpB5ixs0CN-221">
          <mxGeometry x="40" y="65" width="30" height="30" as="geometry" />
        </mxCell>
        <mxCell id="e0l2LWseTlkpB5ixs0CN-224" value="Открывает приложение&amp;nbsp;" style="rounded=1;whiteSpace=wrap;html=1;labelBackgroundColor=none;" vertex="1" parent="e0l2LWseTlkpB5ixs0CN-221">
          <mxGeometry x="90" y="50" width="120" height="60" as="geometry" />
        </mxCell>
        <mxCell id="e0l2LWseTlkpB5ixs0CN-225" value="Выбирает пару с которой будет производиться работа" style="rounded=1;whiteSpace=wrap;html=1;labelBackgroundColor=none;" vertex="1" parent="e0l2LWseTlkpB5ixs0CN-221">
          <mxGeometry x="240" y="50" width="120" height="60" as="geometry" />
        </mxCell>
        <mxCell id="e0l2LWseTlkpB5ixs0CN-226" style="edgeStyle=orthogonalEdgeStyle;rounded=0;orthogonalLoop=1;jettySize=auto;html=1;" edge="1" parent="e0l2LWseTlkpB5ixs0CN-221" source="e0l2LWseTlkpB5ixs0CN-227" target="e0l2LWseTlkpB5ixs0CN-229">
          <mxGeometry relative="1" as="geometry" />
        </mxCell>
        <mxCell id="e0l2LWseTlkpB5ixs0CN-227" value="Редактирует статусы студентов" style="rounded=1;whiteSpace=wrap;html=1;labelBackgroundColor=none;" vertex="1" parent="e0l2LWseTlkpB5ixs0CN-221">
          <mxGeometry x="540" y="50" width="130" height="60" as="geometry" />
        </mxCell>
        <mxCell id="e0l2LWseTlkpB5ixs0CN-228" style="edgeStyle=orthogonalEdgeStyle;rounded=0;orthogonalLoop=1;jettySize=auto;html=1;" edge="1" parent="e0l2LWseTlkpB5ixs0CN-221" source="e0l2LWseTlkpB5ixs0CN-229" target="e0l2LWseTlkpB5ixs0CN-230">
          <mxGeometry relative="1" as="geometry" />
        </mxCell>
        <mxCell id="e0l2LWseTlkpB5ixs0CN-229" value="Нажимает кнопку сохранить" style="rounded=1;whiteSpace=wrap;html=1;labelBackgroundColor=none;" vertex="1" parent="e0l2LWseTlkpB5ixs0CN-221">
          <mxGeometry x="720" y="50" width="120" height="60" as="geometry" />
        </mxCell>
        <mxCell id="e0l2LWseTlkpB5ixs0CN-230" value="Просматривает данных по данной паре" style="rounded=1;whiteSpace=wrap;html=1;labelBackgroundColor=none;" vertex="1" parent="e0l2LWseTlkpB5ixs0CN-221">
          <mxGeometry x="940" y="50" width="120" height="60" as="geometry" />
        </mxCell>
        <mxCell id="e0l2LWseTlkpB5ixs0CN-231" style="edgeStyle=orthogonalEdgeStyle;rounded=0;orthogonalLoop=1;jettySize=auto;html=1;labelBackgroundColor=none;fontColor=default;" edge="1" parent="e0l2LWseTlkpB5ixs0CN-220" source="e0l2LWseTlkpB5ixs0CN-224" target="e0l2LWseTlkpB5ixs0CN-237">
          <mxGeometry relative="1" as="geometry" />
        </mxCell>
        <mxCell id="e0l2LWseTlkpB5ixs0CN-232" style="edgeStyle=orthogonalEdgeStyle;rounded=0;orthogonalLoop=1;jettySize=auto;html=1;labelBackgroundColor=none;fontColor=default;" edge="1" parent="e0l2LWseTlkpB5ixs0CN-220" source="e0l2LWseTlkpB5ixs0CN-238" target="e0l2LWseTlkpB5ixs0CN-225">
          <mxGeometry relative="1" as="geometry" />
        </mxCell>
        <mxCell id="e0l2LWseTlkpB5ixs0CN-233" style="edgeStyle=orthogonalEdgeStyle;rounded=0;orthogonalLoop=1;jettySize=auto;html=1;labelBackgroundColor=none;fontColor=default;" edge="1" parent="e0l2LWseTlkpB5ixs0CN-220" source="e0l2LWseTlkpB5ixs0CN-225" target="e0l2LWseTlkpB5ixs0CN-240">
          <mxGeometry relative="1" as="geometry" />
        </mxCell>
        <mxCell id="e0l2LWseTlkpB5ixs0CN-234" style="edgeStyle=orthogonalEdgeStyle;rounded=0;orthogonalLoop=1;jettySize=auto;html=1;labelBackgroundColor=none;fontColor=default;" edge="1" parent="e0l2LWseTlkpB5ixs0CN-220" source="e0l2LWseTlkpB5ixs0CN-241" target="e0l2LWseTlkpB5ixs0CN-227">
          <mxGeometry relative="1" as="geometry" />
        </mxCell>
        <mxCell id="e0l2LWseTlkpB5ixs0CN-235" value="Система" style="swimlane;html=1;startSize=20;horizontal=0;labelBackgroundColor=none;" vertex="1" parent="e0l2LWseTlkpB5ixs0CN-220">
          <mxGeometry x="30" y="170" width="1190" height="190" as="geometry" />
        </mxCell>
        <mxCell id="e0l2LWseTlkpB5ixs0CN-236" style="edgeStyle=orthogonalEdgeStyle;rounded=0;orthogonalLoop=1;jettySize=auto;html=1;labelBackgroundColor=none;fontColor=default;" edge="1" parent="e0l2LWseTlkpB5ixs0CN-235" source="e0l2LWseTlkpB5ixs0CN-237" target="e0l2LWseTlkpB5ixs0CN-238">
          <mxGeometry relative="1" as="geometry" />
        </mxCell>
        <mxCell id="e0l2LWseTlkpB5ixs0CN-237" value="Распознает аккаунт преподавателя" style="rounded=1;whiteSpace=wrap;html=1;labelBackgroundColor=none;" vertex="1" parent="e0l2LWseTlkpB5ixs0CN-235">
          <mxGeometry x="90" y="60" width="120" height="60" as="geometry" />
        </mxCell>
        <mxCell id="e0l2LWseTlkpB5ixs0CN-238" value="Открывает функционал, доступный пользователю" style="rounded=1;whiteSpace=wrap;html=1;labelBackgroundColor=none;" vertex="1" parent="e0l2LWseTlkpB5ixs0CN-235">
          <mxGeometry x="240" y="60" width="120" height="60" as="geometry" />
        </mxCell>
        <mxCell id="e0l2LWseTlkpB5ixs0CN-239" style="edgeStyle=orthogonalEdgeStyle;rounded=0;orthogonalLoop=1;jettySize=auto;html=1;labelBackgroundColor=none;fontColor=default;" edge="1" parent="e0l2LWseTlkpB5ixs0CN-235" source="e0l2LWseTlkpB5ixs0CN-240" target="e0l2LWseTlkpB5ixs0CN-241">
          <mxGeometry relative="1" as="geometry" />
        </mxCell>
        <mxCell id="e0l2LWseTlkpB5ixs0CN-240" value="Открывает окно, где можно отметить статус студента" style="rounded=1;whiteSpace=wrap;html=1;labelBackgroundColor=none;" vertex="1" parent="e0l2LWseTlkpB5ixs0CN-235">
          <mxGeometry x="380" y="60" width="120" height="60" as="geometry" />
        </mxCell>
        <mxCell id="e0l2LWseTlkpB5ixs0CN-241" value="Дает права редактирования статусов студентов" style="rounded=1;whiteSpace=wrap;html=1;labelBackgroundColor=none;" vertex="1" parent="e0l2LWseTlkpB5ixs0CN-235">
          <mxGeometry x="537.5" y="57.5" width="135" height="65" as="geometry" />
        </mxCell>
        <mxCell id="e0l2LWseTlkpB5ixs0CN-242" style="edgeStyle=orthogonalEdgeStyle;rounded=0;orthogonalLoop=1;jettySize=auto;html=1;" edge="1" parent="e0l2LWseTlkpB5ixs0CN-235" source="e0l2LWseTlkpB5ixs0CN-243" target="e0l2LWseTlkpB5ixs0CN-244">
          <mxGeometry relative="1" as="geometry" />
        </mxCell>
        <mxCell id="e0l2LWseTlkpB5ixs0CN-243" value="Сохраняет данные в базе" style="rounded=1;whiteSpace=wrap;html=1;labelBackgroundColor=none;" vertex="1" parent="e0l2LWseTlkpB5ixs0CN-235">
          <mxGeometry x="720" y="60" width="120" height="60" as="geometry" />
        </mxCell>
        <mxCell id="e0l2LWseTlkpB5ixs0CN-244" value="" style="ellipse;html=1;shape=endState;fillColor=strokeColor;" vertex="1" parent="e0l2LWseTlkpB5ixs0CN-235">
          <mxGeometry x="1120" y="75" width="30" height="30" as="geometry" />
        </mxCell>
        <mxCell id="e0l2LWseTlkpB5ixs0CN-245" style="edgeStyle=orthogonalEdgeStyle;rounded=0;orthogonalLoop=1;jettySize=auto;html=1;" edge="1" parent="e0l2LWseTlkpB5ixs0CN-220" source="e0l2LWseTlkpB5ixs0CN-229" target="e0l2LWseTlkpB5ixs0CN-243">
          <mxGeometry relative="1" as="geometry" />
        </mxCell>
        <mxCell id="e0l2LWseTlkpB5ixs0CN-246" style="edgeStyle=orthogonalEdgeStyle;rounded=0;orthogonalLoop=1;jettySize=auto;html=1;" edge="1" parent="e0l2LWseTlkpB5ixs0CN-220" source="e0l2LWseTlkpB5ixs0CN-243" target="e0l2LWseTlkpB5ixs0CN-230">
          <mxGeometry relative="1" as="geometry">
            <mxPoint x="930" y="260" as="targetPoint" />
          </mxGeometry>
        </mxCell>
        <mxCell id="e0l2LWseTlkpB5ixs0CN-247" value="Староста просматривают статистику&amp;nbsp;" style="swimlane;html=1;childLayout=stackLayout;resizeParent=1;resizeParentMax=0;horizontal=0;startSize=30;horizontalStack=0;labelBackgroundColor=none;" vertex="1" parent="1">
          <mxGeometry x="100" y="1940" width="1220" height="360" as="geometry" />
        </mxCell>
        <mxCell id="e0l2LWseTlkpB5ixs0CN-274" style="edgeStyle=orthogonalEdgeStyle;rounded=0;orthogonalLoop=1;jettySize=auto;html=1;" edge="1" parent="e0l2LWseTlkpB5ixs0CN-247" target="e0l2LWseTlkpB5ixs0CN-254">
          <mxGeometry relative="1" as="geometry">
            <mxPoint x="460" y="250.00000000000045" as="sourcePoint" />
            <Array as="points">
              <mxPoint x="525" y="250" />
            </Array>
          </mxGeometry>
        </mxCell>
        <mxCell id="e0l2LWseTlkpB5ixs0CN-258" style="edgeStyle=orthogonalEdgeStyle;rounded=0;orthogonalLoop=1;jettySize=auto;html=1;labelBackgroundColor=none;fontColor=default;" edge="1" parent="e0l2LWseTlkpB5ixs0CN-247" source="e0l2LWseTlkpB5ixs0CN-251" target="e0l2LWseTlkpB5ixs0CN-264">
          <mxGeometry relative="1" as="geometry" />
        </mxCell>
        <mxCell id="e0l2LWseTlkpB5ixs0CN-259" style="edgeStyle=orthogonalEdgeStyle;rounded=0;orthogonalLoop=1;jettySize=auto;html=1;labelBackgroundColor=none;fontColor=default;" edge="1" parent="e0l2LWseTlkpB5ixs0CN-247" source="e0l2LWseTlkpB5ixs0CN-265" target="e0l2LWseTlkpB5ixs0CN-252">
          <mxGeometry relative="1" as="geometry" />
        </mxCell>
        <mxCell id="e0l2LWseTlkpB5ixs0CN-260" style="edgeStyle=orthogonalEdgeStyle;rounded=0;orthogonalLoop=1;jettySize=auto;html=1;labelBackgroundColor=none;fontColor=default;" edge="1" parent="e0l2LWseTlkpB5ixs0CN-247" source="e0l2LWseTlkpB5ixs0CN-252" target="e0l2LWseTlkpB5ixs0CN-267">
          <mxGeometry relative="1" as="geometry" />
        </mxCell>
        <mxCell id="e0l2LWseTlkpB5ixs0CN-282" style="edgeStyle=orthogonalEdgeStyle;rounded=0;orthogonalLoop=1;jettySize=auto;html=1;" edge="1" parent="e0l2LWseTlkpB5ixs0CN-247" source="e0l2LWseTlkpB5ixs0CN-279" target="e0l2LWseTlkpB5ixs0CN-281">
          <mxGeometry relative="1" as="geometry" />
        </mxCell>
        <mxCell id="e0l2LWseTlkpB5ixs0CN-284" style="edgeStyle=orthogonalEdgeStyle;rounded=0;orthogonalLoop=1;jettySize=auto;html=1;" edge="1" parent="e0l2LWseTlkpB5ixs0CN-247" source="e0l2LWseTlkpB5ixs0CN-281" target="e0l2LWseTlkpB5ixs0CN-271">
          <mxGeometry relative="1" as="geometry">
            <mxPoint x="1245" y="244.99999999999955" as="targetPoint" />
          </mxGeometry>
        </mxCell>
        <mxCell id="e0l2LWseTlkpB5ixs0CN-248" value="Староста" style="swimlane;html=1;startSize=20;horizontal=0;labelBackgroundColor=none;" vertex="1" parent="e0l2LWseTlkpB5ixs0CN-247">
          <mxGeometry x="30" width="1190" height="170" as="geometry" />
        </mxCell>
        <mxCell id="e0l2LWseTlkpB5ixs0CN-249" style="edgeStyle=orthogonalEdgeStyle;rounded=0;orthogonalLoop=1;jettySize=auto;html=1;labelBackgroundColor=none;fontColor=default;" edge="1" parent="e0l2LWseTlkpB5ixs0CN-248" source="e0l2LWseTlkpB5ixs0CN-250" target="e0l2LWseTlkpB5ixs0CN-251">
          <mxGeometry relative="1" as="geometry" />
        </mxCell>
        <mxCell id="e0l2LWseTlkpB5ixs0CN-250" value="" style="ellipse;html=1;labelBackgroundColor=none;" vertex="1" parent="e0l2LWseTlkpB5ixs0CN-248">
          <mxGeometry x="20" y="65" width="30" height="30" as="geometry" />
        </mxCell>
        <mxCell id="e0l2LWseTlkpB5ixs0CN-251" value="Открывает приложение&amp;nbsp;" style="rounded=1;whiteSpace=wrap;html=1;labelBackgroundColor=none;" vertex="1" parent="e0l2LWseTlkpB5ixs0CN-248">
          <mxGeometry x="70" y="50" width="120" height="60" as="geometry" />
        </mxCell>
        <mxCell id="e0l2LWseTlkpB5ixs0CN-252" value="Нажимает кнопку &quot;Статистика по группе&quot;" style="rounded=1;whiteSpace=wrap;html=1;labelBackgroundColor=none;" vertex="1" parent="e0l2LWseTlkpB5ixs0CN-248">
          <mxGeometry x="220" y="50" width="120" height="60" as="geometry" />
        </mxCell>
        <mxCell id="e0l2LWseTlkpB5ixs0CN-254" value="Выбирает предмет\ за весь период" style="rounded=1;whiteSpace=wrap;html=1;labelBackgroundColor=none;" vertex="1" parent="e0l2LWseTlkpB5ixs0CN-248">
          <mxGeometry x="572" y="55" width="130" height="60" as="geometry" />
        </mxCell>
        <mxCell id="e0l2LWseTlkpB5ixs0CN-281" value="Ознакамливается с данными" style="rounded=1;whiteSpace=wrap;html=1;labelBackgroundColor=none;" vertex="1" parent="e0l2LWseTlkpB5ixs0CN-248">
          <mxGeometry x="970" y="65" width="120" height="60" as="geometry" />
        </mxCell>
        <mxCell id="e0l2LWseTlkpB5ixs0CN-262" value="Система" style="swimlane;html=1;startSize=20;horizontal=0;labelBackgroundColor=none;" vertex="1" parent="e0l2LWseTlkpB5ixs0CN-247">
          <mxGeometry x="30" y="170" width="1190" height="190" as="geometry" />
        </mxCell>
        <mxCell id="e0l2LWseTlkpB5ixs0CN-263" style="edgeStyle=orthogonalEdgeStyle;rounded=0;orthogonalLoop=1;jettySize=auto;html=1;labelBackgroundColor=none;fontColor=default;" edge="1" parent="e0l2LWseTlkpB5ixs0CN-262" source="e0l2LWseTlkpB5ixs0CN-264" target="e0l2LWseTlkpB5ixs0CN-265">
          <mxGeometry relative="1" as="geometry" />
        </mxCell>
        <mxCell id="e0l2LWseTlkpB5ixs0CN-264" value="Распознает аккаунт прподавателя" style="rounded=1;whiteSpace=wrap;html=1;labelBackgroundColor=none;" vertex="1" parent="e0l2LWseTlkpB5ixs0CN-262">
          <mxGeometry x="70" y="60" width="120" height="60" as="geometry" />
        </mxCell>
        <mxCell id="e0l2LWseTlkpB5ixs0CN-265" value="Открывает функционал, доступный пользователю" style="rounded=1;whiteSpace=wrap;html=1;labelBackgroundColor=none;" vertex="1" parent="e0l2LWseTlkpB5ixs0CN-262">
          <mxGeometry x="220" y="60" width="120" height="60" as="geometry" />
        </mxCell>
        <mxCell id="e0l2LWseTlkpB5ixs0CN-267" value="Открывает окно с списком предметов&amp;nbsp;" style="rounded=1;whiteSpace=wrap;html=1;labelBackgroundColor=none;" vertex="1" parent="e0l2LWseTlkpB5ixs0CN-262">
          <mxGeometry x="360" y="60" width="120" height="60" as="geometry" />
        </mxCell>
        <mxCell id="e0l2LWseTlkpB5ixs0CN-276" style="edgeStyle=orthogonalEdgeStyle;rounded=0;orthogonalLoop=1;jettySize=auto;html=1;" edge="1" parent="e0l2LWseTlkpB5ixs0CN-262" source="e0l2LWseTlkpB5ixs0CN-270" target="e0l2LWseTlkpB5ixs0CN-275">
          <mxGeometry relative="1" as="geometry" />
        </mxCell>
        <mxCell id="e0l2LWseTlkpB5ixs0CN-270" value="Осуществляет поиск данных по заданым фильтрам" style="rounded=1;whiteSpace=wrap;html=1;labelBackgroundColor=none;" vertex="1" parent="e0l2LWseTlkpB5ixs0CN-262">
          <mxGeometry x="577" y="60" width="120" height="60" as="geometry" />
        </mxCell>
        <mxCell id="e0l2LWseTlkpB5ixs0CN-271" value="" style="ellipse;html=1;shape=endState;fillColor=strokeColor;" vertex="1" parent="e0l2LWseTlkpB5ixs0CN-262">
          <mxGeometry x="1120" y="75" width="30" height="30" as="geometry" />
        </mxCell>
        <mxCell id="e0l2LWseTlkpB5ixs0CN-278" style="edgeStyle=orthogonalEdgeStyle;rounded=0;orthogonalLoop=1;jettySize=auto;html=1;" edge="1" parent="e0l2LWseTlkpB5ixs0CN-262" source="e0l2LWseTlkpB5ixs0CN-275" target="e0l2LWseTlkpB5ixs0CN-277">
          <mxGeometry relative="1" as="geometry" />
        </mxCell>
        <mxCell id="e0l2LWseTlkpB5ixs0CN-275" value="Производит расчет статистики" style="rounded=1;whiteSpace=wrap;html=1;labelBackgroundColor=none;" vertex="1" parent="e0l2LWseTlkpB5ixs0CN-262">
          <mxGeometry x="710" y="60" width="120" height="60" as="geometry" />
        </mxCell>
        <mxCell id="e0l2LWseTlkpB5ixs0CN-280" style="edgeStyle=orthogonalEdgeStyle;rounded=0;orthogonalLoop=1;jettySize=auto;html=1;" edge="1" parent="e0l2LWseTlkpB5ixs0CN-262" source="e0l2LWseTlkpB5ixs0CN-277" target="e0l2LWseTlkpB5ixs0CN-279">
          <mxGeometry relative="1" as="geometry" />
        </mxCell>
        <mxCell id="e0l2LWseTlkpB5ixs0CN-277" value="Создает графическое представление данных&amp;nbsp;" style="rounded=1;whiteSpace=wrap;html=1;labelBackgroundColor=none;" vertex="1" parent="e0l2LWseTlkpB5ixs0CN-262">
          <mxGeometry x="840" y="60" width="120" height="60" as="geometry" />
        </mxCell>
        <mxCell id="e0l2LWseTlkpB5ixs0CN-283" style="edgeStyle=orthogonalEdgeStyle;rounded=0;orthogonalLoop=1;jettySize=auto;html=1;" edge="1" parent="e0l2LWseTlkpB5ixs0CN-262" source="e0l2LWseTlkpB5ixs0CN-279" target="e0l2LWseTlkpB5ixs0CN-271">
          <mxGeometry relative="1" as="geometry">
            <mxPoint x="1200" y="89.99999999999955" as="targetPoint" />
            <Array as="points" />
          </mxGeometry>
        </mxCell>
        <mxCell id="e0l2LWseTlkpB5ixs0CN-279" value="Выводит данные на экран" style="rounded=1;whiteSpace=wrap;html=1;labelBackgroundColor=none;" vertex="1" parent="e0l2LWseTlkpB5ixs0CN-262">
          <mxGeometry x="970" y="60" width="120" height="60" as="geometry" />
        </mxCell>
        <mxCell id="pT0LfYKebL9IYePBxKOn-32" style="edgeStyle=orthogonalEdgeStyle;rounded=0;orthogonalLoop=1;jettySize=auto;html=1;" edge="1" parent="e0l2LWseTlkpB5ixs0CN-247" source="e0l2LWseTlkpB5ixs0CN-254" target="e0l2LWseTlkpB5ixs0CN-270">
          <mxGeometry relative="1" as="geometry" />
        </mxCell>
        <mxCell id="pT0LfYKebL9IYePBxKOn-1" value="Преподаватель/староста просматривают статистику&amp;nbsp;" style="swimlane;html=1;childLayout=stackLayout;resizeParent=1;resizeParentMax=0;horizontal=0;startSize=30;horizontalStack=0;labelBackgroundColor=none;" vertex="1" parent="1">
          <mxGeometry x="100" y="2360" width="1380" height="340" as="geometry" />
        </mxCell>
        <mxCell id="pT0LfYKebL9IYePBxKOn-2" style="edgeStyle=orthogonalEdgeStyle;rounded=0;orthogonalLoop=1;jettySize=auto;html=1;" edge="1" parent="pT0LfYKebL9IYePBxKOn-1" target="pT0LfYKebL9IYePBxKOn-15">
          <mxGeometry relative="1" as="geometry">
            <mxPoint x="460" y="250.00000000000045" as="sourcePoint" />
            <Array as="points">
              <mxPoint x="525" y="250" />
            </Array>
          </mxGeometry>
        </mxCell>
        <mxCell id="pT0LfYKebL9IYePBxKOn-3" style="edgeStyle=orthogonalEdgeStyle;rounded=0;orthogonalLoop=1;jettySize=auto;html=1;labelBackgroundColor=none;fontColor=default;" edge="1" parent="pT0LfYKebL9IYePBxKOn-1" source="pT0LfYKebL9IYePBxKOn-12" target="pT0LfYKebL9IYePBxKOn-20">
          <mxGeometry relative="1" as="geometry" />
        </mxCell>
        <mxCell id="pT0LfYKebL9IYePBxKOn-4" style="edgeStyle=orthogonalEdgeStyle;rounded=0;orthogonalLoop=1;jettySize=auto;html=1;labelBackgroundColor=none;fontColor=default;" edge="1" parent="pT0LfYKebL9IYePBxKOn-1" source="pT0LfYKebL9IYePBxKOn-21" target="pT0LfYKebL9IYePBxKOn-13">
          <mxGeometry relative="1" as="geometry" />
        </mxCell>
        <mxCell id="pT0LfYKebL9IYePBxKOn-5" style="edgeStyle=orthogonalEdgeStyle;rounded=0;orthogonalLoop=1;jettySize=auto;html=1;labelBackgroundColor=none;fontColor=default;" edge="1" parent="pT0LfYKebL9IYePBxKOn-1" source="pT0LfYKebL9IYePBxKOn-13" target="pT0LfYKebL9IYePBxKOn-22">
          <mxGeometry relative="1" as="geometry" />
        </mxCell>
        <mxCell id="pT0LfYKebL9IYePBxKOn-9" value="Преподаватель/староста" style="swimlane;html=1;startSize=20;horizontal=0;labelBackgroundColor=none;" vertex="1" parent="pT0LfYKebL9IYePBxKOn-1">
          <mxGeometry x="30" width="1350" height="150" as="geometry" />
        </mxCell>
        <mxCell id="pT0LfYKebL9IYePBxKOn-10" style="edgeStyle=orthogonalEdgeStyle;rounded=0;orthogonalLoop=1;jettySize=auto;html=1;labelBackgroundColor=none;fontColor=default;" edge="1" parent="pT0LfYKebL9IYePBxKOn-9" source="pT0LfYKebL9IYePBxKOn-11" target="pT0LfYKebL9IYePBxKOn-12">
          <mxGeometry relative="1" as="geometry" />
        </mxCell>
        <mxCell id="pT0LfYKebL9IYePBxKOn-11" value="" style="ellipse;html=1;labelBackgroundColor=none;" vertex="1" parent="pT0LfYKebL9IYePBxKOn-9">
          <mxGeometry x="20" y="65" width="30" height="30" as="geometry" />
        </mxCell>
        <mxCell id="pT0LfYKebL9IYePBxKOn-12" value="Открывает приложение&amp;nbsp;" style="rounded=1;whiteSpace=wrap;html=1;labelBackgroundColor=none;" vertex="1" parent="pT0LfYKebL9IYePBxKOn-9">
          <mxGeometry x="70" y="50" width="120" height="60" as="geometry" />
        </mxCell>
        <mxCell id="pT0LfYKebL9IYePBxKOn-13" value="Нажимает кнопку &quot;просмотр статистики&quot;" style="rounded=1;whiteSpace=wrap;html=1;labelBackgroundColor=none;" vertex="1" parent="pT0LfYKebL9IYePBxKOn-9">
          <mxGeometry x="220" y="50" width="120" height="60" as="geometry" />
        </mxCell>
        <mxCell id="pT0LfYKebL9IYePBxKOn-15" value="Выбирает предмет" style="rounded=1;whiteSpace=wrap;html=1;labelBackgroundColor=none;" vertex="1" parent="pT0LfYKebL9IYePBxKOn-9">
          <mxGeometry x="430" y="50" width="130" height="60" as="geometry" />
        </mxCell>
        <mxCell id="pT0LfYKebL9IYePBxKOn-39" value="Выбирает группу (или поток)" style="whiteSpace=wrap;html=1;rounded=1;labelBackgroundColor=none;" vertex="1" parent="pT0LfYKebL9IYePBxKOn-9">
          <mxGeometry x="660" y="50" width="120" height="60" as="geometry" />
        </mxCell>
        <mxCell id="pT0LfYKebL9IYePBxKOn-18" value="Система" style="swimlane;html=1;startSize=20;horizontal=0;labelBackgroundColor=none;" vertex="1" parent="pT0LfYKebL9IYePBxKOn-1">
          <mxGeometry x="30" y="150" width="1350" height="190" as="geometry" />
        </mxCell>
        <mxCell id="pT0LfYKebL9IYePBxKOn-19" style="edgeStyle=orthogonalEdgeStyle;rounded=0;orthogonalLoop=1;jettySize=auto;html=1;labelBackgroundColor=none;fontColor=default;" edge="1" parent="pT0LfYKebL9IYePBxKOn-18" source="pT0LfYKebL9IYePBxKOn-20" target="pT0LfYKebL9IYePBxKOn-21">
          <mxGeometry relative="1" as="geometry" />
        </mxCell>
        <mxCell id="pT0LfYKebL9IYePBxKOn-20" value="Распознает аккаунт прподавателя" style="rounded=1;whiteSpace=wrap;html=1;labelBackgroundColor=none;" vertex="1" parent="pT0LfYKebL9IYePBxKOn-18">
          <mxGeometry x="70" y="60" width="120" height="60" as="geometry" />
        </mxCell>
        <mxCell id="pT0LfYKebL9IYePBxKOn-21" value="Открывает функционал, доступный пользователю" style="rounded=1;whiteSpace=wrap;html=1;labelBackgroundColor=none;" vertex="1" parent="pT0LfYKebL9IYePBxKOn-18">
          <mxGeometry x="220" y="60" width="120" height="60" as="geometry" />
        </mxCell>
        <mxCell id="pT0LfYKebL9IYePBxKOn-22" value="Открывает окно с фильтрами для настройки" style="rounded=1;whiteSpace=wrap;html=1;labelBackgroundColor=none;" vertex="1" parent="pT0LfYKebL9IYePBxKOn-18">
          <mxGeometry x="360" y="60" width="120" height="60" as="geometry" />
        </mxCell>
        <mxCell id="pT0LfYKebL9IYePBxKOn-23" style="edgeStyle=orthogonalEdgeStyle;rounded=0;orthogonalLoop=1;jettySize=auto;html=1;" edge="1" parent="pT0LfYKebL9IYePBxKOn-18" source="pT0LfYKebL9IYePBxKOn-24" target="pT0LfYKebL9IYePBxKOn-27">
          <mxGeometry relative="1" as="geometry" />
        </mxCell>
        <mxCell id="pT0LfYKebL9IYePBxKOn-24" value="Осуществляет поиск данных по заданым фильтрам" style="rounded=1;whiteSpace=wrap;html=1;labelBackgroundColor=none;" vertex="1" parent="pT0LfYKebL9IYePBxKOn-18">
          <mxGeometry x="750" y="65" width="120" height="60" as="geometry" />
        </mxCell>
        <mxCell id="pT0LfYKebL9IYePBxKOn-25" value="" style="ellipse;html=1;shape=endState;fillColor=strokeColor;" vertex="1" parent="pT0LfYKebL9IYePBxKOn-18">
          <mxGeometry x="1293" y="80" width="30" height="30" as="geometry" />
        </mxCell>
        <mxCell id="pT0LfYKebL9IYePBxKOn-26" style="edgeStyle=orthogonalEdgeStyle;rounded=0;orthogonalLoop=1;jettySize=auto;html=1;" edge="1" parent="pT0LfYKebL9IYePBxKOn-18" source="pT0LfYKebL9IYePBxKOn-27" target="pT0LfYKebL9IYePBxKOn-29">
          <mxGeometry relative="1" as="geometry" />
        </mxCell>
        <mxCell id="pT0LfYKebL9IYePBxKOn-27" value="Производит расчет статистики" style="rounded=1;whiteSpace=wrap;html=1;labelBackgroundColor=none;" vertex="1" parent="pT0LfYKebL9IYePBxKOn-18">
          <mxGeometry x="883" y="65" width="120" height="60" as="geometry" />
        </mxCell>
        <mxCell id="pT0LfYKebL9IYePBxKOn-28" style="edgeStyle=orthogonalEdgeStyle;rounded=0;orthogonalLoop=1;jettySize=auto;html=1;" edge="1" parent="pT0LfYKebL9IYePBxKOn-18" source="pT0LfYKebL9IYePBxKOn-29" target="pT0LfYKebL9IYePBxKOn-31">
          <mxGeometry relative="1" as="geometry" />
        </mxCell>
        <mxCell id="pT0LfYKebL9IYePBxKOn-29" value="Создает графическое представление данных&amp;nbsp;" style="rounded=1;whiteSpace=wrap;html=1;labelBackgroundColor=none;" vertex="1" parent="pT0LfYKebL9IYePBxKOn-18">
          <mxGeometry x="1013" y="65" width="120" height="60" as="geometry" />
        </mxCell>
        <mxCell id="pT0LfYKebL9IYePBxKOn-30" style="edgeStyle=orthogonalEdgeStyle;rounded=0;orthogonalLoop=1;jettySize=auto;html=1;" edge="1" parent="pT0LfYKebL9IYePBxKOn-18" source="pT0LfYKebL9IYePBxKOn-31" target="pT0LfYKebL9IYePBxKOn-25">
          <mxGeometry relative="1" as="geometry">
            <mxPoint x="1373" y="94.99999999999955" as="targetPoint" />
            <Array as="points" />
          </mxGeometry>
        </mxCell>
        <mxCell id="pT0LfYKebL9IYePBxKOn-31" value="Выводит данные на экран" style="rounded=1;whiteSpace=wrap;html=1;labelBackgroundColor=none;" vertex="1" parent="pT0LfYKebL9IYePBxKOn-18">
          <mxGeometry x="1143" y="65" width="120" height="60" as="geometry" />
        </mxCell>
        <mxCell id="pT0LfYKebL9IYePBxKOn-35" value="Открывает окно выбора группы&amp;nbsp;&lt;br&gt;(в том числе поток)" style="whiteSpace=wrap;html=1;rounded=1;labelBackgroundColor=none;" vertex="1" parent="pT0LfYKebL9IYePBxKOn-18">
          <mxGeometry x="530" y="65" width="120" height="60" as="geometry" />
        </mxCell>
        <mxCell id="pT0LfYKebL9IYePBxKOn-36" value="" style="edgeStyle=orthogonalEdgeStyle;rounded=0;orthogonalLoop=1;jettySize=auto;html=1;" edge="1" parent="pT0LfYKebL9IYePBxKOn-1" source="pT0LfYKebL9IYePBxKOn-15" target="pT0LfYKebL9IYePBxKOn-35">
          <mxGeometry relative="1" as="geometry">
            <Array as="points">
              <mxPoint x="640" y="80" />
            </Array>
          </mxGeometry>
        </mxCell>
        <mxCell id="pT0LfYKebL9IYePBxKOn-40" value="" style="edgeStyle=orthogonalEdgeStyle;rounded=0;orthogonalLoop=1;jettySize=auto;html=1;" edge="1" parent="pT0LfYKebL9IYePBxKOn-1" source="pT0LfYKebL9IYePBxKOn-35" target="pT0LfYKebL9IYePBxKOn-39">
          <mxGeometry relative="1" as="geometry" />
        </mxCell>
        <mxCell id="pT0LfYKebL9IYePBxKOn-41" style="edgeStyle=orthogonalEdgeStyle;rounded=0;orthogonalLoop=1;jettySize=auto;html=1;" edge="1" parent="pT0LfYKebL9IYePBxKOn-1" source="pT0LfYKebL9IYePBxKOn-39" target="pT0LfYKebL9IYePBxKOn-24">
          <mxGeometry relative="1" as="geometry">
            <Array as="points">
              <mxPoint x="840" y="80" />
            </Array>
          </mxGeometry>
        </mxCell>
        <mxCell id="pT0LfYKebL9IYePBxKOn-84" value="Администратор и система просмотр статистики по руппе" style="swimlane;html=1;childLayout=stackLayout;resizeParent=1;resizeParentMax=0;horizontal=0;startSize=30;horizontalStack=0;labelBackgroundColor=none;" vertex="1" parent="1">
          <mxGeometry x="100" y="-350" width="1720" height="370" as="geometry" />
        </mxCell>
        <mxCell id="pT0LfYKebL9IYePBxKOn-85" value="Администратор" style="swimlane;html=1;startSize=20;horizontal=0;labelBackgroundColor=none;" vertex="1" parent="pT0LfYKebL9IYePBxKOn-84">
          <mxGeometry x="30" width="1690" height="180" as="geometry" />
        </mxCell>
        <mxCell id="pT0LfYKebL9IYePBxKOn-86" value="" style="ellipse;html=1;labelBackgroundColor=none;" vertex="1" parent="pT0LfYKebL9IYePBxKOn-85">
          <mxGeometry x="20" y="55" width="30" height="30" as="geometry" />
        </mxCell>
        <mxCell id="pT0LfYKebL9IYePBxKOn-87" value="Открывает приложение&amp;nbsp;" style="rounded=1;whiteSpace=wrap;html=1;labelBackgroundColor=none;" vertex="1" parent="pT0LfYKebL9IYePBxKOn-85">
          <mxGeometry x="70" y="40" width="120" height="60" as="geometry" />
        </mxCell>
        <mxCell id="pT0LfYKebL9IYePBxKOn-88" style="edgeStyle=orthogonalEdgeStyle;rounded=0;orthogonalLoop=1;jettySize=auto;html=1;labelBackgroundColor=none;fontColor=default;" edge="1" parent="pT0LfYKebL9IYePBxKOn-85" source="pT0LfYKebL9IYePBxKOn-86" target="pT0LfYKebL9IYePBxKOn-87">
          <mxGeometry relative="1" as="geometry" />
        </mxCell>
        <mxCell id="pT0LfYKebL9IYePBxKOn-89" value="Выбирает функцию &quot;управление аккаунтом пользователя&quot;" style="rounded=1;whiteSpace=wrap;html=1;labelBackgroundColor=none;" vertex="1" parent="pT0LfYKebL9IYePBxKOn-85">
          <mxGeometry x="220" y="40" width="120" height="60" as="geometry" />
        </mxCell>
        <mxCell id="pT0LfYKebL9IYePBxKOn-90" value="Выбирает тип аккаунта&lt;br&gt;преподаватель/студент" style="rounded=1;whiteSpace=wrap;html=1;labelBackgroundColor=none;" vertex="1" parent="pT0LfYKebL9IYePBxKOn-85">
          <mxGeometry x="460" y="40" width="120" height="60" as="geometry" />
        </mxCell>
        <mxCell id="pT0LfYKebL9IYePBxKOn-91" value="Выбирает добавление&amp;nbsp;" style="rounded=1;whiteSpace=wrap;html=1;labelBackgroundColor=none;" vertex="1" parent="pT0LfYKebL9IYePBxKOn-85">
          <mxGeometry x="670" y="55" width="120" height="60" as="geometry" />
        </mxCell>
        <mxCell id="pT0LfYKebL9IYePBxKOn-92" value="Заполняет данные&amp;nbsp;" style="rounded=1;whiteSpace=wrap;html=1;labelBackgroundColor=none;" vertex="1" parent="pT0LfYKebL9IYePBxKOn-85">
          <mxGeometry x="850" y="60" width="120" height="60" as="geometry" />
        </mxCell>
        <mxCell id="pT0LfYKebL9IYePBxKOn-93" value="Выбирает аккаунт&amp;nbsp;&amp;nbsp;" style="rounded=1;whiteSpace=wrap;html=1;labelBackgroundColor=none;" vertex="1" parent="pT0LfYKebL9IYePBxKOn-85">
          <mxGeometry x="1070" y="50" width="120" height="60" as="geometry" />
        </mxCell>
        <mxCell id="pT0LfYKebL9IYePBxKOn-94" value="Редактирует данные&amp;nbsp;" style="rounded=1;whiteSpace=wrap;html=1;labelBackgroundColor=none;" vertex="1" parent="pT0LfYKebL9IYePBxKOn-85">
          <mxGeometry x="1260" y="50" width="120" height="60" as="geometry" />
        </mxCell>
        <mxCell id="pT0LfYKebL9IYePBxKOn-95" value="Удаляет аккаунт&amp;nbsp;" style="rounded=1;whiteSpace=wrap;html=1;labelBackgroundColor=none;" vertex="1" parent="pT0LfYKebL9IYePBxKOn-85">
          <mxGeometry x="1390" y="50" width="120" height="60" as="geometry" />
        </mxCell>
        <mxCell id="pT0LfYKebL9IYePBxKOn-96" value="Система" style="swimlane;html=1;startSize=20;horizontal=0;labelBackgroundColor=none;" vertex="1" parent="pT0LfYKebL9IYePBxKOn-84">
          <mxGeometry x="30" y="180" width="1690" height="190" as="geometry" />
        </mxCell>
        <mxCell id="pT0LfYKebL9IYePBxKOn-97" value="Распознает аккаунт администратора" style="rounded=1;whiteSpace=wrap;html=1;labelBackgroundColor=none;" vertex="1" parent="pT0LfYKebL9IYePBxKOn-96">
          <mxGeometry x="60" y="80" width="120" height="60" as="geometry" />
        </mxCell>
        <mxCell id="pT0LfYKebL9IYePBxKOn-98" value="Открывает функционал, доступный пользователю" style="rounded=1;whiteSpace=wrap;html=1;labelBackgroundColor=none;" vertex="1" parent="pT0LfYKebL9IYePBxKOn-96">
          <mxGeometry x="240" y="80" width="120" height="60" as="geometry" />
        </mxCell>
        <mxCell id="pT0LfYKebL9IYePBxKOn-99" style="edgeStyle=orthogonalEdgeStyle;rounded=0;orthogonalLoop=1;jettySize=auto;html=1;labelBackgroundColor=none;fontColor=default;" edge="1" parent="pT0LfYKebL9IYePBxKOn-96" source="pT0LfYKebL9IYePBxKOn-97" target="pT0LfYKebL9IYePBxKOn-98">
          <mxGeometry relative="1" as="geometry" />
        </mxCell>
        <mxCell id="pT0LfYKebL9IYePBxKOn-100" value="Открывает список пользователей" style="rounded=1;whiteSpace=wrap;html=1;labelBackgroundColor=none;" vertex="1" parent="pT0LfYKebL9IYePBxKOn-96">
          <mxGeometry x="370" y="80" width="120" height="60" as="geometry" />
        </mxCell>
        <mxCell id="pT0LfYKebL9IYePBxKOn-101" value="Прелагает список аккаунтов или добавление нового" style="rounded=1;whiteSpace=wrap;html=1;labelBackgroundColor=none;" vertex="1" parent="pT0LfYKebL9IYePBxKOn-96">
          <mxGeometry x="560" y="80" width="120" height="60" as="geometry" />
        </mxCell>
        <mxCell id="pT0LfYKebL9IYePBxKOn-102" value="Открывает форму заполнения данных аккаунта" style="rounded=1;whiteSpace=wrap;html=1;labelBackgroundColor=none;" vertex="1" parent="pT0LfYKebL9IYePBxKOn-96">
          <mxGeometry x="770" y="80" width="120" height="60" as="geometry" />
        </mxCell>
        <mxCell id="pT0LfYKebL9IYePBxKOn-103" style="edgeStyle=orthogonalEdgeStyle;rounded=0;orthogonalLoop=1;jettySize=auto;html=1;" edge="1" parent="pT0LfYKebL9IYePBxKOn-96" source="pT0LfYKebL9IYePBxKOn-104" target="pT0LfYKebL9IYePBxKOn-105">
          <mxGeometry relative="1" as="geometry" />
        </mxCell>
        <mxCell id="pT0LfYKebL9IYePBxKOn-104" value="Добавляет аккаунт в базу" style="rounded=1;whiteSpace=wrap;html=1;labelBackgroundColor=none;" vertex="1" parent="pT0LfYKebL9IYePBxKOn-96">
          <mxGeometry x="940" y="80" width="120" height="60" as="geometry" />
        </mxCell>
        <mxCell id="pT0LfYKebL9IYePBxKOn-105" value="" style="ellipse;html=1;shape=endState;fillColor=strokeColor;" vertex="1" parent="pT0LfYKebL9IYePBxKOn-96">
          <mxGeometry x="1096" y="95" width="30" height="30" as="geometry" />
        </mxCell>
        <mxCell id="pT0LfYKebL9IYePBxKOn-106" value="Открывает заполненую форму по аккаунту" style="rounded=1;whiteSpace=wrap;html=1;labelBackgroundColor=none;" vertex="1" parent="pT0LfYKebL9IYePBxKOn-96">
          <mxGeometry x="1180" y="80" width="120" height="60" as="geometry" />
        </mxCell>
        <mxCell id="pT0LfYKebL9IYePBxKOn-107" style="edgeStyle=orthogonalEdgeStyle;rounded=0;orthogonalLoop=1;jettySize=auto;html=1;" edge="1" parent="pT0LfYKebL9IYePBxKOn-96" source="pT0LfYKebL9IYePBxKOn-108" target="pT0LfYKebL9IYePBxKOn-109">
          <mxGeometry relative="1" as="geometry" />
        </mxCell>
        <mxCell id="pT0LfYKebL9IYePBxKOn-108" value="Сохраняет изменения в базе" style="rounded=1;whiteSpace=wrap;html=1;labelBackgroundColor=none;" vertex="1" parent="pT0LfYKebL9IYePBxKOn-96">
          <mxGeometry x="1490" y="70" width="120" height="60" as="geometry" />
        </mxCell>
        <mxCell id="pT0LfYKebL9IYePBxKOn-109" value="" style="ellipse;html=1;shape=endState;fillColor=strokeColor;" vertex="1" parent="pT0LfYKebL9IYePBxKOn-96">
          <mxGeometry x="1640" y="85" width="30" height="30" as="geometry" />
        </mxCell>
        <mxCell id="pT0LfYKebL9IYePBxKOn-110" style="edgeStyle=orthogonalEdgeStyle;rounded=0;orthogonalLoop=1;jettySize=auto;html=1;labelBackgroundColor=none;fontColor=default;" edge="1" parent="pT0LfYKebL9IYePBxKOn-84" source="pT0LfYKebL9IYePBxKOn-87" target="pT0LfYKebL9IYePBxKOn-97">
          <mxGeometry relative="1" as="geometry">
            <Array as="points">
              <mxPoint x="150" y="140" />
              <mxPoint x="150" y="140" />
            </Array>
          </mxGeometry>
        </mxCell>
        <mxCell id="pT0LfYKebL9IYePBxKOn-111" style="edgeStyle=orthogonalEdgeStyle;rounded=0;orthogonalLoop=1;jettySize=auto;html=1;labelBackgroundColor=none;fontColor=default;" edge="1" parent="pT0LfYKebL9IYePBxKOn-84" source="pT0LfYKebL9IYePBxKOn-98" target="pT0LfYKebL9IYePBxKOn-89">
          <mxGeometry relative="1" as="geometry">
            <Array as="points">
              <mxPoint x="320" y="210" />
              <mxPoint x="320" y="210" />
            </Array>
          </mxGeometry>
        </mxCell>
        <mxCell id="pT0LfYKebL9IYePBxKOn-112" style="edgeStyle=orthogonalEdgeStyle;rounded=0;orthogonalLoop=1;jettySize=auto;html=1;" edge="1" parent="pT0LfYKebL9IYePBxKOn-84" source="pT0LfYKebL9IYePBxKOn-89" target="pT0LfYKebL9IYePBxKOn-100">
          <mxGeometry relative="1" as="geometry" />
        </mxCell>
        <mxCell id="pT0LfYKebL9IYePBxKOn-113" style="edgeStyle=orthogonalEdgeStyle;rounded=0;orthogonalLoop=1;jettySize=auto;html=1;" edge="1" parent="pT0LfYKebL9IYePBxKOn-84" source="pT0LfYKebL9IYePBxKOn-100" target="pT0LfYKebL9IYePBxKOn-90">
          <mxGeometry relative="1" as="geometry">
            <mxPoint x="600" y="90" as="targetPoint" />
            <Array as="points">
              <mxPoint x="550" y="280" />
            </Array>
          </mxGeometry>
        </mxCell>
        <mxCell id="pT0LfYKebL9IYePBxKOn-114" style="edgeStyle=orthogonalEdgeStyle;rounded=0;orthogonalLoop=1;jettySize=auto;html=1;" edge="1" parent="pT0LfYKebL9IYePBxKOn-84" source="pT0LfYKebL9IYePBxKOn-90" target="pT0LfYKebL9IYePBxKOn-101">
          <mxGeometry relative="1" as="geometry">
            <Array as="points">
              <mxPoint x="640" y="70" />
              <mxPoint x="640" y="290" />
            </Array>
          </mxGeometry>
        </mxCell>
        <mxCell id="pT0LfYKebL9IYePBxKOn-115" style="edgeStyle=orthogonalEdgeStyle;rounded=0;orthogonalLoop=1;jettySize=auto;html=1;" edge="1" parent="pT0LfYKebL9IYePBxKOn-84" source="pT0LfYKebL9IYePBxKOn-101" target="pT0LfYKebL9IYePBxKOn-91">
          <mxGeometry relative="1" as="geometry">
            <Array as="points">
              <mxPoint x="760" y="290" />
            </Array>
          </mxGeometry>
        </mxCell>
        <mxCell id="pT0LfYKebL9IYePBxKOn-116" style="edgeStyle=orthogonalEdgeStyle;rounded=0;orthogonalLoop=1;jettySize=auto;html=1;" edge="1" parent="pT0LfYKebL9IYePBxKOn-84" source="pT0LfYKebL9IYePBxKOn-91" target="pT0LfYKebL9IYePBxKOn-102">
          <mxGeometry relative="1" as="geometry">
            <Array as="points">
              <mxPoint x="850" y="70" />
            </Array>
          </mxGeometry>
        </mxCell>
        <mxCell id="pT0LfYKebL9IYePBxKOn-117" style="edgeStyle=orthogonalEdgeStyle;rounded=0;orthogonalLoop=1;jettySize=auto;html=1;" edge="1" parent="pT0LfYKebL9IYePBxKOn-84" source="pT0LfYKebL9IYePBxKOn-102" target="pT0LfYKebL9IYePBxKOn-92">
          <mxGeometry relative="1" as="geometry">
            <Array as="points">
              <mxPoint x="940" y="290" />
            </Array>
          </mxGeometry>
        </mxCell>
        <mxCell id="pT0LfYKebL9IYePBxKOn-118" style="edgeStyle=orthogonalEdgeStyle;rounded=0;orthogonalLoop=1;jettySize=auto;html=1;" edge="1" parent="pT0LfYKebL9IYePBxKOn-84" source="pT0LfYKebL9IYePBxKOn-92" target="pT0LfYKebL9IYePBxKOn-104">
          <mxGeometry relative="1" as="geometry">
            <Array as="points">
              <mxPoint x="1040" y="90" />
            </Array>
          </mxGeometry>
        </mxCell>
        <mxCell id="pT0LfYKebL9IYePBxKOn-119" style="edgeStyle=orthogonalEdgeStyle;rounded=0;orthogonalLoop=1;jettySize=auto;html=1;" edge="1" parent="pT0LfYKebL9IYePBxKOn-84" source="pT0LfYKebL9IYePBxKOn-101" target="pT0LfYKebL9IYePBxKOn-93">
          <mxGeometry relative="1" as="geometry">
            <Array as="points">
              <mxPoint x="650" y="350" />
              <mxPoint x="1180" y="350" />
            </Array>
          </mxGeometry>
        </mxCell>
        <mxCell id="pT0LfYKebL9IYePBxKOn-120" style="edgeStyle=orthogonalEdgeStyle;rounded=0;orthogonalLoop=1;jettySize=auto;html=1;" edge="1" parent="pT0LfYKebL9IYePBxKOn-84" source="pT0LfYKebL9IYePBxKOn-93" target="pT0LfYKebL9IYePBxKOn-106">
          <mxGeometry relative="1" as="geometry">
            <Array as="points">
              <mxPoint x="1260" y="80" />
            </Array>
          </mxGeometry>
        </mxCell>
        <mxCell id="pT0LfYKebL9IYePBxKOn-121" style="edgeStyle=orthogonalEdgeStyle;rounded=0;orthogonalLoop=1;jettySize=auto;html=1;" edge="1" parent="pT0LfYKebL9IYePBxKOn-84" source="pT0LfYKebL9IYePBxKOn-106" target="pT0LfYKebL9IYePBxKOn-94">
          <mxGeometry relative="1" as="geometry">
            <Array as="points">
              <mxPoint x="1360" y="290" />
            </Array>
          </mxGeometry>
        </mxCell>
        <mxCell id="pT0LfYKebL9IYePBxKOn-122" style="edgeStyle=orthogonalEdgeStyle;rounded=0;orthogonalLoop=1;jettySize=auto;html=1;" edge="1" parent="pT0LfYKebL9IYePBxKOn-84" source="pT0LfYKebL9IYePBxKOn-106" target="pT0LfYKebL9IYePBxKOn-95">
          <mxGeometry relative="1" as="geometry">
            <Array as="points">
              <mxPoint x="1470" y="290" />
            </Array>
          </mxGeometry>
        </mxCell>
        <mxCell id="pT0LfYKebL9IYePBxKOn-123" style="edgeStyle=orthogonalEdgeStyle;rounded=0;orthogonalLoop=1;jettySize=auto;html=1;" edge="1" parent="pT0LfYKebL9IYePBxKOn-84" source="pT0LfYKebL9IYePBxKOn-95" target="pT0LfYKebL9IYePBxKOn-108">
          <mxGeometry relative="1" as="geometry">
            <Array as="points">
              <mxPoint x="1560" y="80" />
            </Array>
          </mxGeometry>
        </mxCell>
        <mxCell id="pT0LfYKebL9IYePBxKOn-124" style="edgeStyle=orthogonalEdgeStyle;rounded=0;orthogonalLoop=1;jettySize=auto;html=1;" edge="1" parent="pT0LfYKebL9IYePBxKOn-84" source="pT0LfYKebL9IYePBxKOn-94" target="pT0LfYKebL9IYePBxKOn-108">
          <mxGeometry relative="1" as="geometry">
            <Array as="points">
              <mxPoint x="1410" y="40" />
              <mxPoint x="1600" y="40" />
            </Array>
          </mxGeometry>
        </mxCell>
      </root>
    </mxGraphModel>
  </diagram>
</mxfile>
